<svg width="28" height="28" viewBox="0 0 28 28" fill="none" xmlns="http://www.w3.org/2000/svg">
<g id="Frame" clip-path="url(#clip0_591_3595)">
<path id="Vector" d="M17.2207 0.868652C18.125 0.881219 18.9878 1.05278 19.7934 1.46257C20.5037 1.8262 21.0829 2.33461 21.4782 3.03535C21.7351 3.49794 21.9036 4.00433 21.9751 4.52863C22.1221 5.53507 21.9735 6.50873 21.6416 7.46081C21.4465 8.01922 21.1766 8.54293 20.8843 9.05735C20.2887 10.1045 19.5235 11.0121 18.6334 11.8166C17.4915 12.8498 16.2393 13.7542 14.8994 14.5133C14.3804 14.8064 13.8422 15.0526 13.2633 15.2031C12.9086 15.2989 12.5425 15.3452 12.1751 15.3408C11.6916 15.331 11.3132 15.1108 11.019 14.7398C10.7473 14.4068 10.6073 13.9857 10.6256 13.5563C10.6288 13.4369 10.646 13.3182 10.6769 13.2028C10.8521 12.5807 11.09 11.9849 11.4457 11.4415C11.7175 11.0265 12.0415 10.658 12.4653 10.3944C12.9365 10.101 13.4488 9.97556 14.0028 10.0966C14.176 10.1372 14.339 10.213 14.4817 10.3192C14.8464 10.5799 14.8273 10.9888 14.6522 11.25C14.5022 11.477 14.3344 11.6917 14.1506 11.8923C13.8392 12.2278 13.5083 12.5449 13.1854 12.8695C12.8996 13.1566 12.6311 13.458 12.4134 13.8014C12.3005 13.9795 12.1964 14.1612 12.1653 14.3751C12.126 14.6433 12.2653 14.8261 12.536 14.8512C12.6761 14.8627 12.8171 14.8485 12.9521 14.8094C13.3682 14.6944 13.7545 14.5089 14.1339 14.309C14.7191 13.9994 15.2592 13.621 15.7857 13.2219C16.4238 12.7381 17.0443 12.2335 17.6161 11.6724C18.2674 11.0339 18.8479 10.34 19.2921 9.53927C19.6167 8.95463 19.8557 8.33722 19.962 7.67499C20.0559 7.09173 20.0035 6.52348 19.7333 5.98802C19.6032 5.72336 19.3997 5.50172 19.147 5.34957C19.0304 5.27935 18.9017 5.23136 18.7676 5.20806C18.2794 5.12146 17.807 5.19249 17.3429 5.34739C16.859 5.50912 16.4102 5.74516 15.9739 6.00305C15.027 6.56474 14.079 7.12615 13.1767 7.75859C12.7243 8.0755 12.2858 8.41262 11.8424 8.74209C11.4419 9.03987 11.0441 9.3412 10.6065 9.58462C10.2513 9.78686 9.86689 9.93275 9.46697 10.0171C8.9714 10.1176 8.51462 10.0242 8.09499 9.75482C7.65952 9.47534 7.35464 9.09178 7.22077 8.58418C7.13554 8.26373 7.16914 7.946 7.24263 7.62964C7.34999 7.16522 7.55379 6.7445 7.80786 6.34564C8.43621 5.3605 9.22628 4.5248 10.145 3.8104C11.5066 2.75178 13.0048 1.93657 14.6254 1.34674C15.4574 1.0424 16.3349 0.88076 17.2207 0.868652Z" fill="#E20010"/>
<path id="Vector_2" d="M6.01896 23.391C6.01431 23.0818 5.97907 22.8037 5.8004 22.5624C5.7134 22.4459 5.59295 22.3586 5.45509 22.3122C5.09994 22.1849 4.73823 22.1999 4.38553 22.3089C4.10278 22.3963 3.83013 22.5155 3.55339 22.6217C3.49875 22.6419 3.44903 22.6679 3.38291 22.6974C3.2526 22.3742 3.12447 22.0606 2.99034 21.7328C3.18458 21.6407 3.36762 21.5467 3.55639 21.4661C3.99132 21.2801 4.44236 21.1525 4.91662 21.1238C5.39089 21.0951 5.85887 21.1203 6.29051 21.3503C6.77871 21.6087 7.13113 21.9819 7.27865 22.525C7.29994 22.5961 7.31269 22.6695 7.31663 22.7436C7.33548 23.4487 7.36088 24.1538 7.36389 24.8589C7.3658 25.3408 7.33411 25.823 7.31991 26.3052C7.31737 26.3713 7.28983 26.434 7.24287 26.4806C6.90547 26.8521 6.49268 27.1089 6.02497 27.2813C5.52344 27.4643 4.98934 27.5411 4.45656 27.5067C3.96482 27.4794 3.54027 27.278 3.1813 26.9439C2.82232 26.6098 2.57153 26.2063 2.50159 25.7118C2.40597 25.0346 2.60131 24.4469 3.08814 23.9634C3.40122 23.6525 3.78697 23.4919 4.22162 23.435C4.70244 23.3725 5.1849 23.3891 5.66736 23.3905L6.01896 23.391ZM5.95585 24.492C5.92751 24.4864 5.89887 24.4825 5.87007 24.4803C5.70615 24.477 5.54032 24.4713 5.37559 24.4737C5.17807 24.4767 4.97973 24.4775 4.7833 24.4961C4.58032 24.5155 4.38335 24.5748 4.22599 24.7103C3.96482 24.9354 3.88723 25.2294 3.95088 25.5607C4.03011 25.9705 4.25905 26.2568 4.6672 26.3787C4.87765 26.4416 5.10049 26.451 5.31549 26.406C5.51533 26.3694 5.70173 26.28 5.85532 26.147C5.88132 26.1269 5.9027 26.1014 5.91801 26.0722C5.93333 26.0431 5.94222 26.011 5.9441 25.9782C5.95039 25.8342 5.96896 25.6905 5.97006 25.5465C5.97224 25.2168 5.96732 24.8871 5.96459 24.5573C5.96296 24.5354 5.96004 24.5136 5.95585 24.492Z" fill="#E20010"/>
<path id="Vector_3" d="M22.4505 24.4663C21.2785 24.4663 20.1283 24.4411 18.9621 24.4717C18.9681 24.5537 18.9716 24.6313 18.979 24.7069C19.009 25.0165 19.0757 25.3173 19.2066 25.6011C19.3083 25.8326 19.4663 26.0351 19.6661 26.1901C19.983 26.4308 20.3447 26.4701 20.7242 26.4212C21.0378 26.3808 21.3298 26.2661 21.621 26.1505C21.7546 26.0978 21.8871 26.0412 22.0308 25.9825C22.1674 26.2682 22.3013 26.5491 22.4406 26.8381C22.4149 26.8567 22.3909 26.8775 22.3641 26.8928C21.7959 27.2299 21.1856 27.4471 20.5264 27.5045C19.9253 27.5566 19.3516 27.458 18.8326 27.1255C18.4791 26.8991 18.2315 26.5791 18.0245 26.2213C17.7694 25.776 17.615 25.2803 17.572 24.769C17.4854 23.8366 17.6833 22.9686 18.166 22.1649C18.5025 21.6062 19.0049 21.3027 19.6338 21.1981C20.2119 21.0964 20.8074 21.1955 21.3214 21.4789C21.6093 21.6349 21.8098 21.8805 21.9751 22.1559C22.1937 22.5189 22.3087 22.9192 22.3639 23.3339C22.4087 23.6683 22.4229 24.0068 22.4496 24.3447C22.4529 24.3794 22.4505 24.4155 22.4505 24.4663ZM21.0299 23.4049C20.9618 23.0932 20.9154 22.7747 20.7113 22.5105C20.609 22.3792 20.4652 22.2864 20.3034 22.2471C19.8732 22.1332 19.4407 22.3315 19.2557 22.7389C19.1896 22.8839 19.1508 23.0416 19.1027 23.1943C19.0812 23.2634 19.0672 23.3352 19.05 23.4049C19.1656 23.4355 20.9116 23.4369 21.0304 23.4057L21.0299 23.4049Z" fill="#E20010"/>
<path id="Vector_4" d="M14.762 19.7022L16.1605 19.4858V21.2034C16.4708 21.222 16.7664 21.2018 17.0637 21.2337V22.2918C16.7632 22.2967 16.4689 22.2877 16.1621 22.3063C16.1621 22.3658 16.1621 22.4104 16.1621 22.4549C16.1596 23.4734 16.1574 24.4919 16.1556 25.5106C16.1556 25.6709 16.1684 25.8316 16.1829 25.9914C16.2058 26.2373 16.3422 26.3933 16.5804 26.4531C16.7118 26.4864 16.8468 26.5053 16.9801 26.5307L17.1139 26.558V27.456C17.0989 27.4634 17.0829 27.4688 17.0664 27.4718C16.6695 27.4896 16.2741 27.4792 15.8903 27.3626C15.5155 27.2495 15.203 27.0446 14.991 26.7069C14.8705 26.5157 14.8093 26.3007 14.7828 26.0785C14.7668 25.9394 14.7589 25.7995 14.7593 25.6595C14.7593 23.7253 14.7604 21.7912 14.7626 19.8574L14.762 19.7022Z" fill="#E20010"/>
<path id="Vector_5" d="M23.2196 19.7061L24.5719 19.4717V19.6583C24.5719 21.4149 24.5727 23.1715 24.5741 24.9282C24.5741 25.2497 24.5769 25.5713 24.5793 25.8931C24.5815 26.2105 24.6973 26.3723 25.0006 26.4668C25.1036 26.4953 25.2083 26.5177 25.3139 26.534C25.3784 26.546 25.4437 26.5518 25.5221 26.5613V27.4787C25.5148 27.4847 25.5062 27.489 25.497 27.491C25.1129 27.5066 24.7304 27.5003 24.3569 27.391C24.1307 27.3259 23.92 27.2155 23.7376 27.0665C23.398 26.7886 23.2598 26.4163 23.2243 25.9964C23.2139 25.8734 23.2153 25.7491 23.2155 25.6256C23.2155 23.704 23.2169 21.7825 23.2196 19.8613V19.7061Z" fill="#E20010"/>
<path id="Vector_6" d="M12.0432 27.3944H10.6772C10.6756 27.3373 10.6729 27.2852 10.6726 27.2335C10.6711 26.4129 10.67 25.5922 10.6691 24.7715C10.6674 24.1158 10.6633 23.4602 10.6636 22.8045C10.664 22.6856 10.6731 22.5669 10.6909 22.4494C10.7111 22.3152 10.7813 22.2035 10.8789 22.1092C11.4154 21.5869 12.0582 21.2738 12.7912 21.1389C13.2506 21.0546 13.7214 21.054 14.181 21.1369C14.2053 21.1413 14.2296 21.1468 14.2533 21.1528C14.2651 21.1558 14.2763 21.1615 14.299 21.1703C14.1438 21.5648 13.9547 21.9418 13.7766 22.3144C13.5638 22.3144 13.3622 22.3081 13.1611 22.3158C12.8139 22.3273 12.473 22.4122 12.161 22.5649C12.0724 22.6084 12.0394 22.6625 12.0397 22.7644C12.0435 24.2578 12.0444 25.7513 12.0424 27.2447L12.0432 27.3944Z" fill="#E20010"/>
<path id="Vector_7" d="M9.66978 21.2632C9.68426 23.3099 9.66842 25.3447 9.68153 27.392H8.3448C8.34152 27.3426 8.33496 27.2909 8.33496 27.2393C8.33496 25.9525 8.33496 24.6656 8.33496 23.3785C8.33496 22.7887 8.33988 22.1989 8.34234 21.609C8.34234 21.5642 8.34234 21.5194 8.34234 21.4632L9.66978 21.2632Z" fill="#E20010"/>
<path id="Vector_8" d="M8.94567 20.6597C8.29301 20.658 7.88431 20.0084 8.15505 19.3951C8.32142 19.0189 8.60718 18.876 9.01943 18.8784C9.57183 18.8831 9.98134 19.4325 9.84967 19.9693C9.74449 20.3982 9.40026 20.6608 8.94567 20.6597Z" fill="#E20010"/>
</g>
<defs>
<clipPath id="clip0_591_3595">
<rect width="27.3193" height="27.3193" fill="white" transform="translate(0.340332 0.531738)"/>
</clipPath>
</defs>
</svg>
