<svg width="24" height="30" viewBox="0 0 24 30" fill="none" xmlns="http://www.w3.org/2000/svg">
<path id="Shape" fill-rule="evenodd" clip-rule="evenodd" d="M17.2669 0.951233C17.5182 2.65786 16.8235 4.32979 15.9072 5.5127C14.9268 6.78151 13.2369 7.76286 11.5996 7.71165C11.3007 6.07772 12.066 4.39422 12.9972 3.26253C14.0186 2.01354 15.7692 1.05532 17.2669 0.951233ZM22.1854 24.9728C23.0295 23.6792 23.3448 23.0267 24 21.5662C19.2343 19.7538 18.4707 12.9786 23.1871 10.3781C21.7485 8.57405 19.727 7.52826 17.8187 7.52826C16.4437 7.52826 15.5016 7.88708 14.6452 8.21328C13.9315 8.48512 13.2772 8.7343 12.4815 8.7343C11.6216 8.7343 10.8601 8.46127 10.0628 8.17539C9.18662 7.86124 8.26716 7.53157 7.12624 7.53157C4.98479 7.53157 2.70539 8.84004 1.26024 11.077C-0.771178 14.2276 -0.424671 20.1503 2.86961 25.1959C4.04708 27.0016 5.62032 29.0304 7.67802 29.0486C8.53183 29.0571 9.09999 28.8022 9.71483 28.5265C10.4186 28.2108 11.1834 27.8678 12.5078 27.8607C13.8399 27.8527 14.5927 28.2 15.2871 28.5203C15.8862 28.7966 16.4417 29.0528 17.2883 29.0436C19.3476 29.0271 21.0079 26.7786 22.1854 24.9728Z" fill="black" fill-opacity="0.73"/>
</svg>
