<svg width="17" height="8" viewBox="0 0 17 8" fill="none" xmlns="http://www.w3.org/2000/svg">
<path id="Base" d="M0.617399 3.79147C0.430635 3.97824 0.430635 4.28104 0.617399 4.46781L3.6609 7.51131C3.84767 7.69807 4.15047 7.69807 4.33724 7.51131C4.524 7.32454 4.524 7.02174 4.33724 6.83497L1.6319 4.12964L4.33724 1.4243C4.524 1.23754 4.524 0.934733 4.33724 0.747969C4.15047 0.561204 3.84767 0.561204 3.6609 0.747969L0.617399 3.79147ZM16.2593 4.60788C16.5234 4.60788 16.7375 4.39376 16.7375 4.12964C16.7375 3.86551 16.5234 3.6514 16.2593 3.6514V4.60788ZM0.955566 4.60788H16.2593V3.6514H0.955566V4.60788Z" fill="black"/>
</svg>
