<svg width="209" height="180" viewBox="0 0 209 180" fill="none" xmlns="http://www.w3.org/2000/svg">
<g id="empty/bro">
<g id="Plants">
<path id="Vector" d="M34.4536 12.6429C34.4236 12.6429 34.8036 10.778 34.8386 10.643C35.2686 9.30807 36.8885 6.98817 38.4534 6.99317C38.7141 7.00052 38.9703 7.06276 39.2053 7.17582C39.4403 7.28889 39.6488 7.45024 39.8173 7.64934C39.9857 7.84844 40.1103 8.08082 40.1828 8.33131C40.2554 8.5818 40.2743 8.84478 40.2383 9.10308C40.1233 10.203 39.1334 11.143 38.2384 11.683C37.1885 12.3379 34.4536 12.6429 34.4536 12.6429Z" fill="#92E3A9"/>
<path id="Vector_2" d="M31.4188 0.103089C32.9187 0.633065 33.6287 3.36295 33.5787 4.76288C33.5787 4.88288 33.2987 6.7628 33.2737 6.7628H33.2437C33.3587 7.19278 33.4837 7.65776 33.6087 8.16773C33.8287 9.10769 34.0687 10.1676 34.2537 11.3476C34.4682 12.6116 34.6084 13.887 34.6737 15.1674C34.7534 16.6022 34.7049 18.0411 34.5287 19.4672C34.5263 19.4838 34.5263 19.5007 34.5287 19.5172C34.7237 19.1023 35.3036 17.9523 35.3536 17.8723C36.1236 16.7024 38.2935 14.8724 39.8084 15.3074C40.0572 15.3833 40.2871 15.5107 40.4833 15.6815C40.6794 15.8522 40.8374 16.0624 40.9469 16.2982C41.0563 16.5341 41.1148 16.7905 41.1185 17.0505C41.1222 17.3105 41.0711 17.5684 40.9684 17.8073C40.5684 18.8373 39.3685 19.4822 38.3635 19.7672C37.2286 20.0922 34.6987 19.7122 34.4987 19.6772C34.2849 21.1247 33.9742 22.5562 33.5687 23.962C33.3354 24.782 33.0821 25.6003 32.8088 26.4169C32.9837 26.0619 33.1487 25.747 33.1737 25.707C33.9437 24.532 36.1186 22.7071 37.6285 23.1421C37.8773 23.2179 38.1072 23.3454 38.3034 23.5161C38.4995 23.6868 38.6575 23.897 38.767 24.1329C38.8764 24.3688 38.9349 24.6251 38.9386 24.8851C38.9423 25.1452 38.8912 25.403 38.7885 25.642C38.3885 26.6719 37.1886 27.3169 36.1836 27.6019C35.1786 27.8869 32.9987 27.6019 32.4288 27.5269L32.1138 28.4668C31.6138 29.9668 31.0688 31.4667 30.6138 32.9366C30.4489 33.4366 30.3039 33.9766 30.1589 34.4966C30.3189 34.1816 30.4539 33.9166 30.4789 33.8766C31.2438 32.7067 33.4187 30.8767 34.9287 31.3117C35.1769 31.3884 35.4064 31.5162 35.6022 31.687C35.7981 31.8578 35.956 32.0677 36.0657 32.3032C36.1755 32.5387 36.2347 32.7947 36.2395 33.0545C36.2443 33.3143 36.1946 33.5722 36.0936 33.8116C35.6936 34.8466 34.4887 35.4865 33.4837 35.7765C32.4788 36.0665 30.5139 35.8115 29.8339 35.7165C29.6989 36.2515 29.5689 36.7865 29.4639 37.3115C29.3989 37.6764 29.3139 38.0164 29.2689 38.3814L29.1189 39.4564C29.0489 40.1413 28.9689 40.8463 28.9189 41.5163C28.8789 41.9812 28.8489 42.4262 28.8189 42.8762C28.9789 42.3762 29.3189 41.3413 29.3189 41.2613C29.8726 40.1613 30.6988 39.2215 31.7188 38.5314C31.7732 38.404 31.8419 38.2832 31.9238 38.1714C32.0653 37.953 32.2514 37.7669 32.4698 37.6252C32.6882 37.4836 32.934 37.3897 33.1912 37.3496C33.4484 37.3095 33.7111 37.3241 33.9623 37.3925C34.2134 37.4609 34.4473 37.5815 34.6487 37.7464C35.8386 38.7714 35.5386 41.5813 34.9937 42.8712C34.9637 42.9462 34.5187 43.7312 34.2337 44.2262C34.4487 43.9612 34.6487 43.7012 34.8737 43.4362C35.3086 42.9012 35.7586 42.3812 36.2386 41.8213L36.9736 41.0263C37.2136 40.7563 37.5035 40.5263 37.7685 40.2313C38.3935 39.6264 39.0585 39.0414 39.7434 38.4664C39.2785 38.0864 37.6385 36.7065 37.1686 35.7665C36.6986 34.8266 36.3636 33.5116 36.8536 32.5167C36.9613 32.2794 37.1178 32.0674 37.3127 31.8945C37.5076 31.7215 37.7367 31.5915 37.9852 31.5127C38.2336 31.434 38.4958 31.4084 38.7548 31.4375C39.0137 31.4666 39.2637 31.5498 39.4885 31.6817C40.8134 32.5167 40.9484 35.3415 40.6034 36.6815C40.6034 36.7665 40.2234 37.7114 40.0184 38.2264C40.4334 37.8864 40.8434 37.5464 41.2734 37.2265C42.5133 36.2715 43.7983 35.3365 45.0732 34.4016L46.2382 33.5416C46.0732 33.4066 44.0933 31.8067 43.5633 30.7517C43.0983 29.8168 42.7583 28.4968 43.2483 27.5069C43.3554 27.2691 43.5115 27.0565 43.7064 26.8831C43.9013 26.7097 44.1305 26.5794 44.3791 26.5006C44.6278 26.4218 44.8903 26.3963 45.1494 26.4258C45.4086 26.4554 45.6586 26.5392 45.8832 26.6719C47.2131 27.5019 47.3431 30.3268 46.9981 31.6717C46.9731 31.7717 46.4581 33.1316 46.3132 33.4716C47.1631 32.8367 48.0081 32.1967 48.813 31.5267C49.9083 30.6339 50.9438 29.6702 51.9129 28.6418C51.8379 28.5768 49.763 26.9169 49.223 25.842C48.7531 24.907 48.4181 23.5821 48.908 22.5921C49.0153 22.355 49.1712 22.1431 49.3657 21.9702C49.5602 21.7972 49.7888 21.6672 50.0369 21.5884C50.2849 21.5097 50.5467 21.484 50.8054 21.5131C51.064 21.5421 51.3136 21.6253 51.5379 21.7571C52.8679 22.5921 53.0029 25.417 52.6579 26.7569C52.6579 26.8469 52.2429 27.8819 52.0479 28.3718L52.1229 28.4218C53.0701 27.3589 53.9217 26.2145 54.6678 25.002C55.0878 24.337 55.4478 23.6821 55.7877 23.0371C55.3678 22.7671 53.4728 21.5121 52.8779 20.5972C52.2829 19.6822 51.8329 18.4423 52.2079 17.4023C52.2883 17.1544 52.4199 16.9262 52.5944 16.7326C52.7688 16.539 52.9821 16.3844 53.2203 16.2787C53.4585 16.173 53.7164 16.1187 53.9769 16.1194C54.2375 16.12 54.4951 16.1756 54.7328 16.2824C56.1477 16.9673 56.5877 19.7822 56.3927 21.1472C56.3927 21.2222 56.1927 21.9771 56.0477 22.5221C56.1927 22.2271 56.3527 21.9271 56.4877 21.6421C56.9877 20.5772 57.4127 19.5672 57.7627 18.6423C57.9626 18.1423 58.1276 17.6673 58.2626 17.2273C57.9876 16.7274 56.9177 14.8074 56.8127 13.7275C56.7077 12.6475 56.8777 11.3376 57.6927 10.5876C57.8782 10.405 58.1001 10.2635 58.344 10.1723C58.5878 10.0811 58.8481 10.0423 59.108 10.0583C59.3679 10.0743 59.6214 10.1449 59.8522 10.2654C60.083 10.3859 60.2858 10.5536 60.4475 10.7576C61.3875 12.0126 60.4925 14.6974 59.6826 15.8374C59.6126 15.9374 58.3376 17.3373 58.3226 17.3373V17.3073C58.1826 17.7323 58.0326 18.1873 57.8526 18.6773C57.5227 19.5872 57.1377 20.6072 56.6427 21.6771C56.1194 22.8479 55.5302 23.988 54.8778 25.092C54.1497 26.3303 53.3131 27.5015 52.3779 28.5918L52.3429 28.6318C52.7329 28.3918 53.8428 27.7519 53.9378 27.7119C55.2278 27.1619 58.0376 26.8519 59.0676 28.0319C59.2334 28.2327 59.355 28.4661 59.4246 28.7171C59.4942 28.968 59.5102 29.2307 59.4715 29.4882C59.4328 29.7458 59.3404 29.9922 59.2001 30.2116C59.0599 30.4311 58.8751 30.6185 58.6576 30.7617C57.7527 31.4017 56.3977 31.2617 55.3978 30.9617C54.2728 30.6017 52.3979 28.8918 52.2279 28.7518C51.2513 29.8413 50.2023 30.8636 49.088 31.8117C48.4431 32.3667 47.7731 32.9066 47.0881 33.4416C47.4331 33.2416 47.7431 33.0666 47.7881 33.0466C49.073 32.4967 51.8829 32.1867 52.9129 33.3666C53.0794 33.5671 53.2017 33.8005 53.2717 34.0516C53.3417 34.3026 53.3579 34.5656 53.3192 34.8234C53.2805 35.0811 53.1878 35.3278 53.0471 35.5472C52.9064 35.7666 52.721 35.9538 52.5029 36.0965C51.6029 36.7365 50.243 36.5965 49.248 36.2965C48.2531 35.9965 46.5881 34.5466 46.1582 34.1616C45.8932 34.3616 45.6582 34.5666 45.3732 34.7716C44.1183 35.7315 42.8733 36.6865 41.6484 37.6664C41.2234 38.0064 40.8184 38.3614 40.4084 38.7164L41.0184 38.3764C42.3033 37.8264 45.1132 37.5114 46.1432 38.6914C46.309 38.8926 46.4307 39.1265 46.5004 39.3778C46.57 39.6291 46.586 39.8923 46.5473 40.1502C46.5087 40.408 46.4162 40.6549 46.276 40.8748C46.1357 41.0946 45.9508 41.2825 45.7332 41.4263C44.8332 42.0662 43.4733 41.9262 42.4783 41.6213C41.4834 41.3163 39.9784 40.0113 39.4785 39.5564C39.0735 39.9313 38.6635 40.3063 38.2885 40.6863C38.0335 40.9513 37.7885 41.1863 37.5385 41.4713L36.8186 42.2812C36.3836 42.8162 35.9286 43.3612 35.5136 43.8912C35.2236 44.2561 34.9537 44.6111 34.6837 44.9711C35.0987 44.6211 35.9386 43.9712 36.0136 43.9112C37.1986 43.1712 39.9334 42.4112 41.1284 43.4512C41.322 43.6251 41.4769 43.8379 41.5829 44.0757C41.689 44.3134 41.7438 44.5708 41.7438 44.8311C41.7438 45.0914 41.689 45.3488 41.5829 45.5866C41.4769 45.8243 41.322 46.0371 41.1284 46.2111C40.3284 46.981 38.9685 47.061 37.9385 46.901C36.7986 46.721 34.7387 45.4011 34.4837 45.2111C34.0337 45.8061 33.6037 46.3811 33.2037 46.936C31.8188 48.8509 30.7388 50.5009 29.9989 51.6608L29.9239 51.7808L28.9639 51.3158L29.1139 51.0858C29.8889 49.9259 31.0188 48.286 32.4588 46.3861C32.9137 45.7811 33.4087 45.1461 33.9237 44.5011C33.3881 43.916 32.8873 43.2999 32.4238 42.6562C31.3188 43.0912 29.0289 43.1062 28.7289 43.1062C28.6839 43.8462 28.6439 44.5711 28.6139 45.2511C28.5139 47.611 28.5239 49.5809 28.5489 50.9609V51.1208L27.494 50.6209C27.494 49.2509 27.549 47.401 27.689 45.2111C27.734 44.4611 27.799 43.6562 27.874 42.8312C27.579 42.7562 25.1941 42.1462 24.2941 41.4263C23.4792 40.7713 22.6192 39.7163 22.6492 38.6064C22.6472 38.346 22.7 38.0881 22.8043 37.8495C22.9086 37.6109 23.0619 37.3969 23.2543 37.2214C23.4467 37.046 23.6739 36.913 23.9211 36.8312C24.1683 36.7494 24.43 36.7205 24.6891 36.7465C26.244 36.9465 27.549 39.4564 27.804 40.8313C27.804 40.9163 27.884 41.8313 27.914 42.3812C27.949 42.0462 27.974 41.7163 28.014 41.3813C28.079 40.6963 28.169 40.0163 28.264 39.2814C28.3189 38.9264 28.3789 38.5714 28.4339 38.2114C28.4889 37.8514 28.5839 37.4814 28.6589 37.1115C28.8489 36.2615 29.0789 35.4065 29.3339 34.5516C28.7339 34.4916 26.609 34.2416 25.6991 33.7166C24.7891 33.1916 23.7791 32.2817 23.6442 31.1817C23.6024 30.9244 23.6152 30.6612 23.682 30.4093C23.7487 30.1573 23.8678 29.9222 24.0315 29.7194C24.1952 29.5165 24.3998 29.3504 24.632 29.232C24.8642 29.1135 25.1188 29.0453 25.3791 29.0318C26.944 28.9968 28.6139 31.2767 29.0739 32.6017C29.1039 32.6817 29.3289 33.6666 29.4439 34.2116C29.5989 33.7116 29.7489 33.1866 29.9439 32.6717C30.4439 31.1717 31.0088 29.7068 31.5588 28.2219C31.7288 27.7669 31.8888 27.3119 32.0588 26.8569C31.8438 26.8569 29.3089 26.5919 28.289 26.007C27.384 25.507 26.374 24.572 26.234 23.4721C26.193 23.2149 26.2065 22.952 26.2736 22.7003C26.3406 22.4487 26.4598 22.2139 26.6234 22.0113C26.7869 21.8086 26.9912 21.6425 27.223 21.5238C27.4548 21.4051 27.7089 21.3364 27.969 21.3222C29.5389 21.2872 31.2088 23.5671 31.6688 24.892C31.7038 24.992 32.0238 26.3919 32.0888 26.7719C32.4488 25.772 32.8038 24.772 33.0887 23.772C33.5116 22.4221 33.8456 21.0458 34.0887 19.6522C33.9887 19.6522 31.3438 19.4022 30.2989 18.8023C29.3889 18.3023 28.3789 17.3673 28.244 16.2674C28.2021 16.0104 28.215 15.7474 28.2818 15.4957C28.3486 15.244 28.4678 15.0092 28.6315 14.8068C28.7953 14.6043 29 14.4387 29.2321 14.3208C29.4643 14.2028 29.7188 14.1353 29.9789 14.1225C31.5438 14.0825 33.2137 16.3624 33.6737 17.6873C33.7037 17.7723 33.9537 18.8523 34.0587 19.3722H34.1437C34.3502 17.9639 34.4305 16.54 34.3837 15.1174C34.3837 14.3325 34.3087 13.5875 34.2337 12.8625C33.7337 12.8625 31.4638 12.8625 30.4639 12.4275C29.4639 11.9926 28.3989 11.2126 28.139 10.1376C28.0696 9.88584 28.0542 9.62222 28.0938 9.36405C28.1334 9.10588 28.227 8.85898 28.3686 8.63951C28.5102 8.42004 28.6965 8.23294 28.9155 8.09047C29.1344 7.948 29.3809 7.85336 29.6389 7.81275C31.1938 7.59776 33.1037 9.68767 33.7087 10.9476C33.7387 11.0176 33.9987 11.7526 34.1737 12.2926C34.1387 11.9626 34.1037 11.6226 34.0587 11.2926C33.9037 10.1176 33.6837 9.0527 33.4837 8.10774C33.3637 7.57276 33.2487 7.10778 33.1337 6.6428C32.6338 6.39281 30.6738 5.36286 30.0039 4.53289C29.3339 3.70293 28.7339 2.49798 29.0039 1.42803C29.0637 1.17536 29.1758 0.938054 29.3331 0.731456C29.4903 0.524859 29.6892 0.353574 29.9168 0.228686C30.1444 0.103797 30.3957 0.0280868 30.6545 0.00645144C30.9132 -0.0151839 31.1736 0.0177387 31.4188 0.103089Z" fill="#92E3A9"/>
<path id="Vector_3" d="M59.7576 24.2468C58.5327 24.1968 56.0828 22.9419 56.0828 22.9419C56.0828 22.9419 57.3977 21.5769 57.4927 21.5019C58.5876 20.632 61.2175 19.587 62.5225 20.457C62.7358 20.6064 62.9151 20.7992 63.0488 21.0228C63.1825 21.2463 63.2674 21.4955 63.2981 21.7542C63.3288 22.0128 63.3045 22.275 63.2268 22.5236C63.1492 22.7722 63.0199 23.0017 62.8475 23.1969C62.1475 24.0518 60.8026 24.2918 59.7576 24.2468Z" fill="#92E3A9"/>
<g id="Group" opacity="0.5">
<path id="Vector_4" d="M34.4536 12.6429C34.4236 12.6429 34.8036 10.778 34.8386 10.643C35.2686 9.30807 36.8885 6.98817 38.4534 6.99317C38.7141 7.00052 38.9703 7.06276 39.2053 7.17582C39.4403 7.28889 39.6488 7.45024 39.8173 7.64934C39.9857 7.84844 40.1103 8.08082 40.1828 8.33131C40.2554 8.5818 40.2743 8.84478 40.2383 9.10308C40.1233 10.203 39.1334 11.143 38.2384 11.683C37.1885 12.3379 34.4536 12.6429 34.4536 12.6429Z" fill="white"/>
<path id="Vector_5" d="M31.4188 0.103089C32.9187 0.633065 33.6287 3.36295 33.5787 4.76288C33.5787 4.88288 33.2987 6.7628 33.2737 6.7628H33.2437C33.3587 7.19278 33.4837 7.65776 33.6087 8.16773C33.8287 9.10769 34.0687 10.1676 34.2537 11.3476C34.4682 12.6116 34.6084 13.887 34.6737 15.1674C34.7534 16.6022 34.7049 18.0411 34.5287 19.4672C34.5263 19.4838 34.5263 19.5007 34.5287 19.5172C34.7237 19.1023 35.3036 17.9523 35.3536 17.8723C36.1236 16.7024 38.2935 14.8724 39.8084 15.3074C40.0572 15.3833 40.2871 15.5107 40.4833 15.6815C40.6794 15.8522 40.8374 16.0624 40.9469 16.2982C41.0563 16.5341 41.1148 16.7905 41.1185 17.0505C41.1222 17.3105 41.0711 17.5684 40.9684 17.8073C40.5684 18.8373 39.3685 19.4822 38.3635 19.7672C37.2286 20.0922 34.6987 19.7122 34.4987 19.6772C34.2849 21.1247 33.9742 22.5562 33.5687 23.962C33.3354 24.782 33.0821 25.6003 32.8088 26.4169C32.9837 26.0619 33.1487 25.747 33.1737 25.707C33.9437 24.532 36.1186 22.7071 37.6285 23.1421C37.8773 23.2179 38.1072 23.3454 38.3034 23.5161C38.4995 23.6868 38.6575 23.897 38.767 24.1329C38.8764 24.3688 38.9349 24.6251 38.9386 24.8851C38.9423 25.1452 38.8912 25.403 38.7885 25.642C38.3885 26.6719 37.1886 27.3169 36.1836 27.6019C35.1786 27.8869 32.9987 27.6019 32.4288 27.5269L32.1138 28.4668C31.6138 29.9668 31.0688 31.4667 30.6138 32.9366C30.4489 33.4366 30.3039 33.9766 30.1589 34.4966C30.3189 34.1816 30.4539 33.9166 30.4789 33.8766C31.2438 32.7067 33.4187 30.8767 34.9287 31.3117C35.1769 31.3884 35.4064 31.5162 35.6022 31.687C35.7981 31.8578 35.956 32.0677 36.0657 32.3032C36.1755 32.5387 36.2347 32.7947 36.2395 33.0545C36.2443 33.3143 36.1946 33.5722 36.0936 33.8116C35.6936 34.8466 34.4887 35.4865 33.4837 35.7765C32.4788 36.0665 30.5139 35.8115 29.8339 35.7165C29.6989 36.2515 29.5689 36.7865 29.4639 37.3115C29.3989 37.6764 29.3139 38.0164 29.2689 38.3814L29.1189 39.4564C29.0489 40.1413 28.9689 40.8463 28.9189 41.5163C28.8789 41.9812 28.8489 42.4262 28.8189 42.8762C28.9789 42.3762 29.3189 41.3413 29.3189 41.2613C29.8726 40.1613 30.6988 39.2215 31.7188 38.5314C31.7732 38.404 31.8419 38.2832 31.9238 38.1714C32.0653 37.953 32.2514 37.7669 32.4698 37.6252C32.6882 37.4836 32.934 37.3897 33.1912 37.3496C33.4484 37.3095 33.7111 37.3241 33.9623 37.3925C34.2134 37.4609 34.4473 37.5815 34.6487 37.7464C35.8386 38.7714 35.5386 41.5813 34.9937 42.8712C34.9637 42.9462 34.5187 43.7312 34.2337 44.2262C34.4487 43.9612 34.6487 43.7012 34.8737 43.4362C35.3086 42.9012 35.7586 42.3812 36.2386 41.8213L36.9736 41.0263C37.2136 40.7563 37.5035 40.5263 37.7685 40.2313C38.3935 39.6264 39.0585 39.0414 39.7434 38.4664C39.2785 38.0864 37.6385 36.7065 37.1686 35.7665C36.6986 34.8266 36.3636 33.5116 36.8536 32.5167C36.9613 32.2794 37.1178 32.0674 37.3127 31.8945C37.5076 31.7215 37.7367 31.5915 37.9852 31.5127C38.2336 31.434 38.4958 31.4084 38.7548 31.4375C39.0137 31.4666 39.2637 31.5498 39.4885 31.6817C40.8134 32.5167 40.9484 35.3415 40.6034 36.6815C40.6034 36.7665 40.2234 37.7114 40.0184 38.2264C40.4334 37.8864 40.8434 37.5464 41.2734 37.2265C42.5133 36.2715 43.7983 35.3365 45.0732 34.4016L46.2382 33.5416C46.0732 33.4066 44.0933 31.8067 43.5633 30.7517C43.0983 29.8168 42.7583 28.4968 43.2483 27.5069C43.3554 27.2691 43.5115 27.0565 43.7064 26.8831C43.9013 26.7097 44.1305 26.5794 44.3791 26.5006C44.6278 26.4218 44.8903 26.3963 45.1494 26.4258C45.4086 26.4554 45.6586 26.5392 45.8832 26.6719C47.2131 27.5019 47.3431 30.3268 46.9981 31.6717C46.9731 31.7717 46.4581 33.1316 46.3132 33.4716C47.1631 32.8367 48.0081 32.1967 48.813 31.5267C49.9083 30.6339 50.9438 29.6702 51.9129 28.6418C51.8379 28.5768 49.763 26.9169 49.223 25.842C48.7531 24.907 48.4181 23.5821 48.908 22.5921C49.0153 22.355 49.1712 22.1431 49.3657 21.9702C49.5602 21.7972 49.7888 21.6672 50.0369 21.5884C50.2849 21.5097 50.5467 21.484 50.8054 21.5131C51.064 21.5421 51.3136 21.6253 51.5379 21.7571C52.8679 22.5921 53.0029 25.417 52.6579 26.7569C52.6579 26.8469 52.2429 27.8819 52.0479 28.3718L52.1229 28.4218C53.0701 27.3589 53.9217 26.2145 54.6678 25.002C55.0878 24.337 55.4478 23.6821 55.7877 23.0371C55.3678 22.7671 53.4728 21.5121 52.8779 20.5972C52.2829 19.6822 51.8329 18.4423 52.2079 17.4023C52.2883 17.1544 52.4199 16.9262 52.5944 16.7326C52.7688 16.539 52.9821 16.3844 53.2203 16.2787C53.4585 16.173 53.7164 16.1187 53.9769 16.1194C54.2375 16.12 54.4951 16.1756 54.7328 16.2824C56.1477 16.9673 56.5877 19.7822 56.3927 21.1472C56.3927 21.2222 56.1927 21.9771 56.0477 22.5221C56.1927 22.2271 56.3527 21.9271 56.4877 21.6421C56.9877 20.5772 57.4127 19.5672 57.7627 18.6423C57.9626 18.1423 58.1276 17.6673 58.2626 17.2273C57.9876 16.7274 56.9177 14.8074 56.8127 13.7275C56.7077 12.6475 56.8777 11.3376 57.6927 10.5876C57.8782 10.405 58.1001 10.2635 58.344 10.1723C58.5878 10.0811 58.8481 10.0423 59.108 10.0583C59.3679 10.0743 59.6214 10.1449 59.8522 10.2654C60.083 10.3859 60.2858 10.5536 60.4475 10.7576C61.3875 12.0126 60.4925 14.6974 59.6826 15.8374C59.6126 15.9374 58.3376 17.3373 58.3226 17.3373V17.3073C58.1826 17.7323 58.0326 18.1873 57.8526 18.6773C57.5227 19.5872 57.1377 20.6072 56.6427 21.6771C56.1194 22.8479 55.5302 23.988 54.8778 25.092C54.1497 26.3303 53.3131 27.5015 52.3779 28.5918L52.3429 28.6318C52.7329 28.3918 53.8428 27.7519 53.9378 27.7119C55.2278 27.1619 58.0376 26.8519 59.0676 28.0319C59.2334 28.2327 59.355 28.4661 59.4246 28.7171C59.4942 28.968 59.5102 29.2307 59.4715 29.4882C59.4328 29.7458 59.3404 29.9922 59.2001 30.2116C59.0599 30.4311 58.8751 30.6185 58.6576 30.7617C57.7527 31.4017 56.3977 31.2617 55.3978 30.9617C54.2728 30.6017 52.3979 28.8918 52.2279 28.7518C51.2513 29.8413 50.2023 30.8636 49.088 31.8117C48.4431 32.3667 47.7731 32.9066 47.0881 33.4416C47.4331 33.2416 47.7431 33.0666 47.7881 33.0466C49.073 32.4967 51.8829 32.1867 52.9129 33.3666C53.0794 33.5671 53.2017 33.8005 53.2717 34.0516C53.3417 34.3026 53.3579 34.5656 53.3192 34.8234C53.2805 35.0811 53.1878 35.3278 53.0471 35.5472C52.9064 35.7666 52.721 35.9538 52.5029 36.0965C51.6029 36.7365 50.243 36.5965 49.248 36.2965C48.2531 35.9965 46.5881 34.5466 46.1582 34.1616C45.8932 34.3616 45.6582 34.5666 45.3732 34.7716C44.1183 35.7315 42.8733 36.6865 41.6484 37.6664C41.2234 38.0064 40.8184 38.3614 40.4084 38.7164L41.0184 38.3764C42.3033 37.8264 45.1132 37.5114 46.1432 38.6914C46.309 38.8926 46.4307 39.1265 46.5004 39.3778C46.57 39.6291 46.586 39.8923 46.5473 40.1502C46.5087 40.408 46.4162 40.6549 46.276 40.8748C46.1357 41.0946 45.9508 41.2825 45.7332 41.4263C44.8332 42.0662 43.4733 41.9262 42.4783 41.6213C41.4834 41.3163 39.9784 40.0113 39.4785 39.5564C39.0735 39.9313 38.6635 40.3063 38.2885 40.6863C38.0335 40.9513 37.7885 41.1863 37.5385 41.4713L36.8186 42.2812C36.3836 42.8162 35.9286 43.3612 35.5136 43.8912C35.2236 44.2561 34.9537 44.6111 34.6837 44.9711C35.0987 44.6211 35.9386 43.9712 36.0136 43.9112C37.1986 43.1712 39.9334 42.4112 41.1284 43.4512C41.322 43.6251 41.4769 43.8379 41.5829 44.0757C41.689 44.3134 41.7438 44.5708 41.7438 44.8311C41.7438 45.0914 41.689 45.3488 41.5829 45.5866C41.4769 45.8243 41.322 46.0371 41.1284 46.2111C40.3284 46.981 38.9685 47.061 37.9385 46.901C36.7986 46.721 34.7387 45.4011 34.4837 45.2111C34.0337 45.8061 33.6037 46.3811 33.2037 46.936C31.8188 48.8509 30.7388 50.5009 29.9989 51.6608L29.9239 51.7808L28.9639 51.3158L29.1139 51.0858C29.8889 49.9259 31.0188 48.286 32.4588 46.3861C32.9137 45.7811 33.4087 45.1461 33.9237 44.5011C33.3881 43.916 32.8873 43.2999 32.4238 42.6562C31.3188 43.0912 29.0289 43.1062 28.7289 43.1062C28.6839 43.8462 28.6439 44.5711 28.6139 45.2511C28.5139 47.611 28.5239 49.5809 28.5489 50.9609V51.1208L27.494 50.6209C27.494 49.2509 27.549 47.401 27.689 45.2111C27.734 44.4611 27.799 43.6562 27.874 42.8312C27.579 42.7562 25.1941 42.1462 24.2941 41.4263C23.4792 40.7713 22.6192 39.7163 22.6492 38.6064C22.6472 38.346 22.7 38.0881 22.8043 37.8495C22.9086 37.6109 23.0619 37.3969 23.2543 37.2214C23.4467 37.046 23.6739 36.913 23.9211 36.8312C24.1683 36.7494 24.43 36.7205 24.6891 36.7465C26.244 36.9465 27.549 39.4564 27.804 40.8313C27.804 40.9163 27.884 41.8313 27.914 42.3812C27.949 42.0462 27.974 41.7163 28.014 41.3813C28.079 40.6963 28.169 40.0163 28.264 39.2814C28.3189 38.9264 28.3789 38.5714 28.4339 38.2114C28.4889 37.8514 28.5839 37.4814 28.6589 37.1115C28.8489 36.2615 29.0789 35.4065 29.3339 34.5516C28.7339 34.4916 26.609 34.2416 25.6991 33.7166C24.7891 33.1916 23.7791 32.2817 23.6442 31.1817C23.6024 30.9244 23.6152 30.6612 23.682 30.4093C23.7487 30.1573 23.8678 29.9222 24.0315 29.7194C24.1952 29.5165 24.3998 29.3504 24.632 29.232C24.8642 29.1135 25.1188 29.0453 25.3791 29.0318C26.944 28.9968 28.6139 31.2767 29.0739 32.6017C29.1039 32.6817 29.3289 33.6666 29.4439 34.2116C29.5989 33.7116 29.7489 33.1866 29.9439 32.6717C30.4439 31.1717 31.0088 29.7068 31.5588 28.2219C31.7288 27.7669 31.8888 27.3119 32.0588 26.8569C31.8438 26.8569 29.3089 26.5919 28.289 26.007C27.384 25.507 26.374 24.572 26.234 23.4721C26.193 23.2149 26.2065 22.952 26.2736 22.7003C26.3406 22.4487 26.4598 22.2139 26.6234 22.0113C26.7869 21.8086 26.9912 21.6425 27.223 21.5238C27.4548 21.4051 27.7089 21.3364 27.969 21.3222C29.5389 21.2872 31.2088 23.5671 31.6688 24.892C31.7038 24.992 32.0238 26.3919 32.0888 26.7719C32.4488 25.772 32.8038 24.772 33.0887 23.772C33.5116 22.4221 33.8456 21.0458 34.0887 19.6522C33.9887 19.6522 31.3438 19.4022 30.2989 18.8023C29.3889 18.3023 28.3789 17.3673 28.244 16.2674C28.2021 16.0104 28.215 15.7474 28.2818 15.4957C28.3486 15.244 28.4678 15.0092 28.6315 14.8068C28.7953 14.6043 29 14.4387 29.2321 14.3208C29.4643 14.2028 29.7188 14.1353 29.9789 14.1225C31.5438 14.0825 33.2137 16.3624 33.6737 17.6873C33.7037 17.7723 33.9537 18.8523 34.0587 19.3722H34.1437C34.3502 17.9639 34.4305 16.54 34.3837 15.1174C34.3837 14.3325 34.3087 13.5875 34.2337 12.8625C33.7337 12.8625 31.4638 12.8625 30.4639 12.4275C29.4639 11.9926 28.3989 11.2126 28.139 10.1376C28.0696 9.88584 28.0542 9.62222 28.0938 9.36405C28.1334 9.10588 28.227 8.85898 28.3686 8.63951C28.5102 8.42004 28.6965 8.23294 28.9155 8.09047C29.1344 7.948 29.3809 7.85336 29.6389 7.81275C31.1938 7.59776 33.1037 9.68767 33.7087 10.9476C33.7387 11.0176 33.9987 11.7526 34.1737 12.2926C34.1387 11.9626 34.1037 11.6226 34.0587 11.2926C33.9037 10.1176 33.6837 9.0527 33.4837 8.10774C33.3637 7.57276 33.2487 7.10778 33.1337 6.6428C32.6338 6.39281 30.6738 5.36286 30.0039 4.53289C29.3339 3.70293 28.7339 2.49798 29.0039 1.42803C29.0637 1.17536 29.1758 0.938054 29.3331 0.731456C29.4903 0.524859 29.6892 0.353574 29.9168 0.228686C30.1444 0.103797 30.3957 0.0280868 30.6545 0.00645144C30.9132 -0.0151839 31.1736 0.0177387 31.4188 0.103089Z" fill="white"/>
<path id="Vector_6" d="M59.7576 24.2468C58.5327 24.1968 56.0828 22.9419 56.0828 22.9419C56.0828 22.9419 57.3977 21.5769 57.4927 21.5019C58.5876 20.632 61.2175 19.587 62.5225 20.457C62.7358 20.6064 62.9151 20.7992 63.0488 21.0228C63.1825 21.2463 63.2674 21.4955 63.2981 21.7542C63.3288 22.0128 63.3045 22.275 63.2268 22.5236C63.1492 22.7722 63.0199 23.0017 62.8475 23.1969C62.1475 24.0518 60.8026 24.2918 59.7576 24.2468Z" fill="white"/>
</g>
<path id="Vector_7" d="M45.4532 54.9257C45.4532 54.9257 38.0185 37.0065 33.8587 37.7865C29.6989 38.5664 40.9934 66.3552 40.9934 66.3552C40.9934 66.3552 27.914 41.6813 18.9944 41.6813C10.0748 41.6813 22.2642 68.9501 33.5887 78.0397C33.5887 78.0397 15.7495 58.8205 5.34498 62.9754C-5.05957 67.1302 26.1291 86.5993 26.1291 86.5993C26.1291 86.5993 7.99486 80.8946 10.0898 85.3144C12.1847 89.7342 17.8194 90.5041 17.8194 90.5041L22.5892 91.5441H48.5881L52.5879 89.9892C52.5879 89.9892 69.2372 81.6745 64.7774 78.2997C60.3176 74.9248 50.508 82.1945 50.508 82.1945C50.508 82.1945 67.4522 63.4953 64.1824 56.4856C60.9125 49.476 46.3432 69.2101 46.3432 69.2101C46.3432 69.2101 58.2376 44.0162 55.8428 39.6014C53.4479 35.1866 45.4532 54.9257 45.4532 54.9257Z" fill="#92E3A9"/>
<path id="Vector_8" opacity="0.4" d="M45.4532 54.9257C45.4532 54.9257 38.0185 37.0065 33.8587 37.7865C29.6989 38.5664 40.9934 66.3552 40.9934 66.3552C40.9934 66.3552 27.914 41.6813 18.9944 41.6813C10.0748 41.6813 22.2642 68.9501 33.5887 78.0397C33.5887 78.0397 15.7495 58.8205 5.34498 62.9754C-5.05957 67.1302 26.1291 86.5993 26.1291 86.5993C26.1291 86.5993 7.99486 80.8946 10.0898 85.3144C12.1847 89.7342 17.8194 90.5041 17.8194 90.5041L25.5891 91.5441H46.5882L52.5879 89.9892C52.5879 89.9892 69.2372 81.6745 64.7774 78.2997C60.3176 74.9248 50.508 82.1945 50.508 82.1945C50.508 82.1945 67.4522 63.4953 64.1824 56.4856C60.9125 49.476 46.3432 69.2101 46.3432 69.2101C46.3432 69.2101 58.2376 44.0162 55.8428 39.6014C53.4479 35.1866 45.4532 54.9257 45.4532 54.9257Z" fill="white"/>
<path id="Vector_9" d="M47.8332 55.8711C41.2935 75.1952 41.2935 88.8696 41.2935 88.8696C41.2935 88.8696 49.0231 89.1696 57.0478 83.2199" stroke="#263238" stroke-width="0.249989" stroke-linecap="round" stroke-linejoin="round"/>
<path id="Vector_10" d="M44.5883 66.2753C43.2389 60.4987 41.4487 54.834 39.2335 49.3311" stroke="#263238" stroke-width="0.249989" stroke-linecap="round" stroke-linejoin="round"/>
<path id="Vector_11" d="M25.2391 54.9756L41.8834 79.6545C41.8834 79.6545 53.1829 70.1549 57.0477 64.7902" stroke="#263238" stroke-width="0.249989" stroke-linecap="round" stroke-linejoin="round"/>
<path id="Vector_12" d="M41.5883 85.5999C41.5883 85.5999 24.0491 77.2753 16.9144 72.5205" stroke="#263238" stroke-width="0.249989" stroke-linecap="round" stroke-linejoin="round"/>
</g>
<g id="Shelf">
<path id="Vector_13" d="M94.391 14.918H90.7761V165.556H94.391V14.918Z" fill="#C2C2C2" stroke="#ABABAB" stroke-width="0.249989" stroke-linecap="round" stroke-linejoin="round"/>
<path id="Vector_14" d="M29.3637 14.918H25.7489V165.556H29.3637V14.918Z" fill="#C2C2C2" stroke="#ABABAB" stroke-width="0.249989" stroke-linecap="round" stroke-linejoin="round"/>
<path id="Vector_15" d="M61.8774 14.918H58.2626V165.556H61.8774V14.918Z" fill="#C2C2C2" stroke="#ABABAB" stroke-width="0.249989" stroke-linecap="round" stroke-linejoin="round"/>
<path id="Vector_16" d="M126.9 14.918H123.285V165.556H126.9V14.918Z" fill="#C2C2C2" stroke="#ABABAB" stroke-width="0.249989" stroke-linecap="round" stroke-linejoin="round"/>
<path id="Vector_17" d="M125.815 19.6123H24.584V26.477H125.815V19.6123Z" fill="#C2C2C2" stroke="#ABABAB" stroke-width="0.249989" stroke-linecap="round" stroke-linejoin="round"/>
<path id="Vector_18" d="M125.815 19.6123H60.6675V26.477H125.815V19.6123Z" fill="#A6A6A6" stroke="#ABABAB" stroke-width="0.249989" stroke-linecap="round" stroke-linejoin="round"/>
<path id="Vector_19" d="M125.815 88.7344H24.584V95.5991H125.815V88.7344Z" fill="#C2C2C2" stroke="#ABABAB" stroke-width="0.249989" stroke-linecap="round" stroke-linejoin="round"/>
<path id="Vector_20" d="M125.815 88.7344H60.6675V95.5991H125.815V88.7344Z" fill="#A6A6A6" stroke="#ABABAB" stroke-width="0.249989" stroke-linecap="round" stroke-linejoin="round"/>
<path id="Vector_21" d="M125.815 157.852H24.584V164.716H125.815V157.852Z" fill="#C2C2C2" stroke="#ABABAB" stroke-width="0.249989" stroke-linecap="round" stroke-linejoin="round"/>
<path id="Vector_22" d="M125.815 157.852H60.6675V164.716H125.815V157.852Z" fill="#A6A6A6" stroke="#ABABAB" stroke-width="0.249989" stroke-linecap="round" stroke-linejoin="round"/>
</g>
<g id="Boxes">
<path id="Vector_23" d="M60.6825 120.998H7.70483V165.501H60.6825V120.998Z" fill="#92E3A9"/>
<g id="Clip path group">
<mask id="mask0_558_5007" style="mask-type:luminance" maskUnits="userSpaceOnUse" x="7" y="120" width="54" height="46">
<g id="clip-path">
<path id="Vector_24" d="M60.6824 120.999H7.70471V165.502H60.6824V120.999Z" fill="white"/>
</g>
</mask>
<g mask="url(#mask0_558_5007)">
<g id="Group_2">
<path id="Vector_25" opacity="0.6" d="M60.6824 120.999H7.70471V165.502H60.6824V120.999Z" fill="white" stroke="#696969" stroke-width="0.249989" stroke-linecap="round" stroke-linejoin="round"/>
</g>
</g>
</g>
<path id="Vector_26" d="M60.6825 120.998H7.70483V165.501H60.6825V120.998Z" stroke="#696969" stroke-width="0.249989" stroke-linecap="round" stroke-linejoin="round"/>
<path id="Vector_27" d="M60.6825 120.998H43.0782V165.501H60.6825V120.998Z" fill="#92E3A9"/>
<g id="Clip path group_2">
<mask id="mask1_558_5007" style="mask-type:luminance" maskUnits="userSpaceOnUse" x="43" y="120" width="18" height="46">
<g id="clip-path-2">
<path id="Vector_28" d="M60.6824 120.999H43.0781V165.502H60.6824V120.999Z" fill="white"/>
</g>
</mask>
<g mask="url(#mask1_558_5007)">
<g id="Group_3">
<path id="Vector_29" opacity="0.39" d="M60.6824 120.999H43.0781V165.502H60.6824V120.999Z" fill="white" stroke="#696969" stroke-width="0.249989" stroke-linecap="round" stroke-linejoin="round"/>
</g>
</g>
</g>
<path id="Vector_30" d="M60.6825 120.998H43.0782V165.501H60.6825V120.998Z" stroke="#696969" stroke-width="0.249989" stroke-linecap="round" stroke-linejoin="round"/>
<path id="Vector_31" d="M52.0629 121.118V165.556" stroke="#696969" stroke-width="0.249989" stroke-linecap="round" stroke-linejoin="round"/>
<path id="Vector_32" d="M63.3573 76.5645H10.3796V121.068H63.3573V76.5645Z" fill="#92E3A9"/>
<g id="Clip path group_3">
<mask id="mask2_558_5007" style="mask-type:luminance" maskUnits="userSpaceOnUse" x="10" y="76" width="54" height="46">
<g id="clip-path-3">
<path id="Vector_33" d="M63.3572 76.5645H10.3795V121.068H63.3572V76.5645Z" fill="white"/>
</g>
</mask>
<g mask="url(#mask2_558_5007)">
<g id="Group_4">
<path id="Vector_34" opacity="0.6" d="M63.3572 76.5645H10.3795V121.068H63.3572V76.5645Z" fill="white" stroke="#696969" stroke-width="0.249989" stroke-linecap="round" stroke-linejoin="round"/>
</g>
</g>
</g>
<path id="Vector_35" d="M63.3573 76.5645H10.3796V121.068H63.3573V76.5645Z" stroke="#696969" stroke-width="0.249989" stroke-linecap="round" stroke-linejoin="round"/>
<path id="Vector_36" d="M63.3574 76.5645H45.7532V121.068H63.3574V76.5645Z" fill="#92E3A9"/>
<g id="Clip path group_4">
<mask id="mask3_558_5007" style="mask-type:luminance" maskUnits="userSpaceOnUse" x="45" y="76" width="19" height="46">
<g id="clip-path-4">
<path id="Vector_37" d="M63.3575 76.5645H45.7533V121.068H63.3575V76.5645Z" fill="white"/>
</g>
</mask>
<g mask="url(#mask3_558_5007)">
<g id="Group_5">
<path id="Vector_38" opacity="0.39" d="M63.3575 76.5645H45.7533V121.068H63.3575V76.5645Z" fill="white" stroke="#696969" stroke-width="0.249989" stroke-linecap="round" stroke-linejoin="round"/>
</g>
</g>
</g>
<path id="Vector_39" d="M63.3574 76.5645H45.7532V121.068H63.3574V76.5645Z" stroke="#696969" stroke-width="0.249989" stroke-linecap="round" stroke-linejoin="round"/>
<path id="Vector_40" d="M54.7378 76.6846V121.123" stroke="#696969" stroke-width="0.249989" stroke-linecap="round" stroke-linejoin="round"/>
<path id="Vector_41" d="M201.221 120.998H148.244V165.501H201.221V120.998Z" fill="#92E3A9"/>
<g id="Clip path group_5">
<mask id="mask4_558_5007" style="mask-type:luminance" maskUnits="userSpaceOnUse" x="148" y="120" width="54" height="46">
<g id="clip-path-5">
<path id="Vector_42" d="M201.221 120.999H148.244V165.502H201.221V120.999Z" fill="white"/>
</g>
</mask>
<g mask="url(#mask4_558_5007)">
<g id="Group_6">
<path id="Vector_43" opacity="0.6" d="M201.221 120.999H148.244V165.502H201.221V120.999Z" fill="white" stroke="#919191" stroke-width="0.249989" stroke-linecap="round" stroke-linejoin="round"/>
</g>
</g>
</g>
<path id="Vector_44" d="M201.221 120.998H148.244V165.501H201.221V120.998Z" stroke="#919191" stroke-width="0.249989" stroke-linecap="round" stroke-linejoin="round"/>
<path id="Vector_45" d="M201.221 120.998H183.617V165.501H201.221V120.998Z" fill="#92E3A9"/>
<g id="Clip path group_6">
<mask id="mask5_558_5007" style="mask-type:luminance" maskUnits="userSpaceOnUse" x="183" y="120" width="19" height="46">
<g id="clip-path-6">
<path id="Vector_46" d="M201.221 120.999H183.617V165.502H201.221V120.999Z" fill="white"/>
</g>
</mask>
<g mask="url(#mask5_558_5007)">
<g id="Group_7">
<path id="Vector_47" opacity="0.39" d="M201.221 120.999H183.617V165.502H201.221V120.999Z" fill="white" stroke="#919191" stroke-width="0.249989" stroke-linecap="round" stroke-linejoin="round"/>
</g>
</g>
</g>
<path id="Vector_48" d="M201.221 120.998H183.617V165.501H201.221V120.998Z" stroke="#919191" stroke-width="0.249989" stroke-linecap="round" stroke-linejoin="round"/>
<path id="Vector_49" d="M192.602 121.118V165.556" stroke="#919191" stroke-width="0.249989" stroke-linecap="round" stroke-linejoin="round"/>
<path id="Vector_50" d="M201.221 76.4502H148.244V120.953H201.221V76.4502Z" fill="#92E3A9"/>
<g id="Clip path group_7">
<mask id="mask6_558_5007" style="mask-type:luminance" maskUnits="userSpaceOnUse" x="148" y="76" width="54" height="45">
<g id="clip-path-7">
<path id="Vector_51" d="M201.221 76.4512H148.244V120.954H201.221V76.4512Z" fill="white"/>
</g>
</mask>
<g mask="url(#mask6_558_5007)">
<g id="Group_8">
<path id="Vector_52" opacity="0.6" d="M201.221 76.4512H148.244V120.954H201.221V76.4512Z" fill="white" stroke="#919191" stroke-width="0.249989" stroke-linecap="round" stroke-linejoin="round"/>
</g>
</g>
</g>
<path id="Vector_53" d="M201.221 76.4502H148.244V120.953H201.221V76.4502Z" stroke="#919191" stroke-width="0.249989" stroke-linecap="round" stroke-linejoin="round"/>
<path id="Vector_54" d="M201.221 76.4502H183.617V120.953H201.221V76.4502Z" fill="#92E3A9"/>
<g id="Clip path group_8">
<mask id="mask7_558_5007" style="mask-type:luminance" maskUnits="userSpaceOnUse" x="183" y="76" width="19" height="45">
<g id="clip-path-8">
<path id="Vector_55" d="M201.221 76.4512H183.617V120.954H201.221V76.4512Z" fill="white"/>
</g>
</mask>
<g mask="url(#mask7_558_5007)">
<g id="Group_9">
<path id="Vector_56" opacity="0.39" d="M201.221 76.4512H183.617V120.954H201.221V76.4512Z" fill="white" stroke="#919191" stroke-width="0.249989" stroke-linecap="round" stroke-linejoin="round"/>
</g>
</g>
</g>
<path id="Vector_57" d="M201.221 76.4502H183.617V120.953H201.221V76.4502Z" stroke="#919191" stroke-width="0.249989" stroke-linecap="round" stroke-linejoin="round"/>
<path id="Vector_58" d="M192.602 76.5693V121.007" stroke="#919191" stroke-width="0.249989" stroke-linecap="round" stroke-linejoin="round"/>
<path id="Vector_59" d="M196.566 39.6016H152.743V76.4149H196.566V39.6016Z" fill="#92E3A9"/>
<g id="Clip path group_9">
<mask id="mask8_558_5007" style="mask-type:luminance" maskUnits="userSpaceOnUse" x="152" y="39" width="45" height="38">
<g id="clip-path-9">
<path id="Vector_60" d="M196.566 39.6025H152.743V76.4159H196.566V39.6025Z" fill="white"/>
</g>
</mask>
<g mask="url(#mask8_558_5007)">
<g id="Group_10">
<path id="Vector_61" opacity="0.6" d="M196.566 39.6025H152.743V76.4159H196.566V39.6025Z" fill="white" stroke="#919191" stroke-width="0.249989" stroke-linecap="round" stroke-linejoin="round"/>
</g>
</g>
</g>
<path id="Vector_62" d="M196.566 39.6016H152.743V76.4149H196.566V39.6016Z" stroke="#919191" stroke-width="0.249989" stroke-linecap="round" stroke-linejoin="round"/>
<path id="Vector_63" d="M196.566 39.6016H182.007V76.4149H196.566V39.6016Z" fill="#92E3A9"/>
<g id="Clip path group_10">
<mask id="mask9_558_5007" style="mask-type:luminance" maskUnits="userSpaceOnUse" x="182" y="39" width="15" height="38">
<g id="clip-path-10">
<path id="Vector_64" d="M196.567 39.6025H182.007V76.4159H196.567V39.6025Z" fill="white"/>
</g>
</mask>
<g mask="url(#mask9_558_5007)">
<g id="Group_11">
<path id="Vector_65" opacity="0.39" d="M196.567 39.6025H182.007V76.4159H196.567V39.6025Z" fill="white" stroke="#919191" stroke-width="0.249989" stroke-linecap="round" stroke-linejoin="round"/>
</g>
</g>
</g>
<path id="Vector_66" d="M196.566 39.6016H182.007V76.4149H196.566V39.6016Z" stroke="#919191" stroke-width="0.249989" stroke-linecap="round" stroke-linejoin="round"/>
<path id="Vector_67" d="M189.437 39.7012V76.4596" stroke="#919191" stroke-width="0.249989" stroke-linecap="round" stroke-linejoin="round"/>
</g>
<g id="hand-truck">
<path id="Vector_68" d="M190.962 148.771H184.097V153.066H190.962V148.771Z" fill="white" stroke="#263238" stroke-width="0.249989" stroke-linecap="round" stroke-linejoin="round"/>
<path id="Vector_69" d="M126.365 165.555C128.657 165.555 130.514 163.698 130.514 161.406C130.514 159.114 128.657 157.256 126.365 157.256C124.073 157.256 122.215 159.114 122.215 161.406C122.215 163.698 124.073 165.555 126.365 165.555Z" fill="#263238" stroke="#263238" stroke-width="0.249989" stroke-linecap="round" stroke-linejoin="round"/>
<path id="Vector_70" d="M194.652 92.7188H192.202V161.501H194.652V92.7188Z" fill="#263238" stroke="#263238" stroke-width="0.249989" stroke-linecap="round" stroke-linejoin="round"/>
<path id="Vector_71" d="M193.347 116.778L187.552 112.168C185.087 110.204 183.238 107.574 182.225 104.589C181.212 101.605 181.078 98.3927 181.837 95.3341C182.061 94.4413 182.575 93.6484 183.299 93.0807C184.024 92.513 184.917 92.2028 185.837 92.1992H200.836C201.757 92.2011 202.651 92.5106 203.376 93.0786C204.1 93.6466 204.614 94.4404 204.836 95.3341C205.597 98.3922 205.463 101.605 204.451 104.589C203.439 107.573 201.591 110.204 199.126 112.168L193.347 116.778ZM185.847 94.5441C185.446 94.5427 185.057 94.676 184.741 94.9227C184.426 95.1694 184.202 95.515 184.107 95.9041C183.454 98.5253 183.568 101.279 184.436 103.837C185.303 106.396 186.889 108.651 189.002 110.333L193.337 113.783L197.676 110.333C199.791 108.651 201.377 106.397 202.246 103.839C203.116 101.28 203.232 98.5263 202.581 95.9041C202.485 95.5154 202.261 95.1703 201.946 94.9238C201.631 94.6773 201.242 94.5436 200.841 94.5441H185.847Z" fill="#263238"/>
<path id="Vector_72" d="M178.962 150.921H103.101V159.751H178.962V150.921Z" fill="white"/>
<g id="Clip path group_11">
<mask id="mask10_558_5007" style="mask-type:luminance" maskUnits="userSpaceOnUse" x="103" y="150" width="76" height="10">
<g id="clip-path-11">
<path id="Vector_73" d="M178.962 150.922H103.101V159.751H178.962V150.922Z" fill="white"/>
</g>
</mask>
<g mask="url(#mask10_558_5007)">
<g id="Group_12">
<path id="Vector_74" opacity="0.28" d="M178.962 150.922H103.101V159.751H178.962V150.922Z" fill="black" stroke="#263238" stroke-width="0.249989" stroke-linecap="round" stroke-linejoin="round"/>
</g>
</g>
</g>
<path id="Vector_75" d="M178.962 150.921H103.101V159.751H178.962V150.921Z" stroke="#263238" stroke-width="0.249989" stroke-linecap="round" stroke-linejoin="round"/>
<path id="Vector_76" d="M111.6 150.921H103.101V159.751H111.6V150.921Z" stroke="#263238" stroke-width="0.249989" stroke-linecap="round" stroke-linejoin="round"/>
<path id="Vector_77" d="M178.957 150.921H170.458V159.751H178.957V150.921Z" stroke="#263238" stroke-width="0.249989" stroke-linecap="round" stroke-linejoin="round"/>
<path id="Vector_78" d="M145.279 150.921H136.779V159.751H145.279V150.921Z" stroke="#263238" stroke-width="0.249989" stroke-linecap="round" stroke-linejoin="round"/>
<path id="Vector_79" d="M178.962 159.75H184.192L190.732 134.896H185.502L178.962 159.75Z" fill="white" stroke="#263238" stroke-width="0.249989" stroke-linecap="round" stroke-linejoin="round"/>
<path id="Vector_80" d="M196.862 145.361H189.997V156.481H196.862V145.361Z" fill="white" stroke="#263238" stroke-width="0.249989" stroke-linecap="round" stroke-linejoin="round"/>
<path id="Vector_81" d="M191.747 165.556C191.357 165.549 190.986 165.392 190.711 165.117C190.436 164.842 190.278 164.47 190.272 164.081V158.546C190.278 158.157 190.436 157.786 190.711 157.51C190.986 157.235 191.357 157.078 191.747 157.071C192.136 157.078 192.507 157.235 192.782 157.51C193.058 157.786 193.215 158.157 193.222 158.546V164.096C193.211 164.483 193.052 164.85 192.777 165.122C192.503 165.394 192.133 165.55 191.747 165.556Z" fill="#263238"/>
<path id="Vector_82" d="M195.252 165.556C194.862 165.549 194.491 165.392 194.216 165.117C193.941 164.842 193.783 164.47 193.777 164.081V158.546C193.783 158.157 193.941 157.786 194.216 157.51C194.491 157.235 194.862 157.078 195.252 157.071C195.645 157.071 196.023 157.226 196.303 157.502C196.584 157.778 196.745 158.153 196.751 158.546V164.096C196.741 164.487 196.578 164.858 196.298 165.131C196.018 165.404 195.643 165.556 195.252 165.556Z" fill="#263238"/>
</g>
<g id="Floor">
<path id="Vector_83" d="M1.00024 165.557H207.896" stroke="#263238" stroke-width="0.249989" stroke-linecap="round" stroke-linejoin="round"/>
</g>
<g id="Character">
<path id="Vector_84" d="M72.382 180C92.3296 180 108.5 178.035 108.5 175.611C108.5 173.186 92.3296 171.221 72.382 171.221C52.4343 171.221 36.2635 173.186 36.2635 175.611C36.2635 178.035 52.4343 180 72.382 180Z" fill="#92E3A9"/>
<path id="Vector_85" opacity="0.5" d="M72.382 180C92.3296 180 108.5 178.035 108.5 175.611C108.5 173.186 92.3296 171.221 72.382 171.221C52.4343 171.221 36.2635 173.186 36.2635 175.611C36.2635 178.035 52.4343 180 72.382 180Z" fill="white"/>
<path id="Vector_86" d="M147.124 175.596C147.124 176.806 139.059 177.786 129.124 177.786C119.19 177.786 111.125 176.786 111.125 175.596C111.125 174.406 119.185 173.411 129.124 173.411C139.064 173.411 147.124 174.406 147.124 175.596Z" fill="#92E3A9"/>
<path id="Vector_87" opacity="0.5" d="M147.124 175.596C147.124 176.806 139.059 177.786 129.124 177.786C119.19 177.786 111.125 176.786 111.125 175.596C111.125 174.406 119.185 173.411 129.124 173.411C139.064 173.411 147.124 174.406 147.124 175.596Z" fill="white"/>
<path id="Vector_88" d="M79.5867 30.9968C79.5867 30.9968 76.7918 28.8019 73.587 29.8969C70.3821 30.9918 67.9522 36.3316 67.0873 40.6714C66.2223 45.0112 62.8974 48.3011 63.6974 53.3909C64.4974 58.4806 70.2821 59.2756 77.2668 60.0256C84.2515 60.7755 88.0413 59.9256 91.3312 55.3358C94.6211 50.746 93.2261 45.1612 91.2812 40.2214C89.3363 35.2817 86.0964 30.6969 83.4015 29.8469C80.7067 28.9969 79.5867 30.9968 79.5867 30.9968Z" fill="#263238" stroke="#263238" stroke-width="0.249989" stroke-linecap="round" stroke-linejoin="round"/>
<path id="Vector_89" d="M68.0372 57.1006C68.5088 57.3127 68.9993 57.48 69.5022 57.6006" stroke="white" stroke-width="0.249989" stroke-linecap="round" stroke-linejoin="round"/>
<path id="Vector_90" d="M78.8866 34.5518C77.7475 37.0968 76.3037 39.4943 74.5868 41.6914C71.727 45.3663 65.4022 48.8361 64.9973 52.691C64.9322 53.2071 64.9774 53.7311 65.13 54.2284C65.2825 54.7257 65.5389 55.185 65.8822 55.5758" stroke="white" stroke-width="0.249989" stroke-linecap="round" stroke-linejoin="round"/>
<path id="Vector_91" d="M90.4911 52.9863C90.2845 53.4703 90.0192 53.927 89.7012 54.3463" stroke="white" stroke-width="0.249989" stroke-linecap="round" stroke-linejoin="round"/>
<path id="Vector_92" d="M88.0863 43.3262C88.0863 43.3262 91.3012 47.036 90.9912 50.9958" stroke="white" stroke-width="0.249989" stroke-linecap="round" stroke-linejoin="round"/>
<path id="Vector_93" d="M78.2767 32.5073C77.0237 32.3798 75.7584 32.5543 74.5867 33.0162C73.415 33.4781 72.3709 34.214 71.542 35.1622C71.427 35.2922 71.322 35.4222 71.222 35.5522" stroke="white" stroke-width="0.249989" stroke-linecap="round" stroke-linejoin="round"/>
<path id="Vector_94" d="M59.8325 126.748L59.2075 136.368C59.2075 136.368 56.5476 149.272 55.7077 154.592C54.8677 159.912 53.3278 168.002 53.0478 168.002C52.7678 168.002 48.178 170.777 46.7081 173.041C45.2381 175.306 47.103 176.266 49.1429 175.541C51.1829 174.816 53.9527 172.766 54.8577 170.332C55.7627 167.897 56.2126 166.992 56.2726 166.597C56.3326 166.202 66.0072 140.228 66.9672 137.453C67.9271 134.678 69.967 126.528 69.967 126.528L74.7218 110.399C74.7218 110.399 79.8116 126.983 79.8716 127.718C79.9316 128.453 85.1314 170.842 85.3714 172.426C85.6113 174.011 85.5413 175.141 86.5013 175.481C87.4613 175.821 89.7262 175.821 90.9161 175.821C92.1061 175.821 96.2359 176.446 98.2708 175.936C100.306 175.426 100.536 175.086 99.1208 174.066C97.7058 173.046 89.8462 172.396 89.1212 169.427C89.0612 169.202 89.0062 125.569 89.0062 125.569C89.0062 125.569 88.3262 111.139 87.1963 107.069H61.0474L59.8325 126.748Z" fill="white" stroke="#263238" stroke-width="0.249989" stroke-linecap="round" stroke-linejoin="round"/>
<path id="Vector_95" d="M49.138 175.531C51.1729 174.791 53.9478 172.756 54.8527 170.321L55.0427 169.821C53.8878 171.051 52.0429 172.761 52.0429 172.761C51.9298 172.181 51.6776 171.637 51.3079 171.176C51.1466 170.998 50.94 170.867 50.7101 170.798C50.4803 170.728 50.2358 170.722 50.0029 170.781L52.0029 168.581C50.5029 169.511 47.803 171.411 46.7431 173.046C45.2281 175.301 47.0881 176.266 49.138 175.531Z" fill="#263238" stroke="#263238" stroke-width="0.249989" stroke-linecap="round" stroke-linejoin="round"/>
<path id="Vector_96" d="M99.0858 174.056C98.1159 173.361 94.131 172.836 91.4711 171.621C91.3614 171.714 91.2757 171.833 91.2212 171.966C91.0523 172.445 90.9203 172.937 90.8262 173.436L85.3264 172.261V172.416C85.5514 174.001 85.4964 175.131 86.4564 175.471C87.4163 175.811 89.6812 175.811 90.8712 175.811C92.0611 175.811 96.1909 176.436 98.2258 175.926C100.261 175.416 100.521 175.096 99.0858 174.056Z" fill="#263238" stroke="#263238" stroke-width="0.249989" stroke-linecap="round" stroke-linejoin="round"/>
<path id="Vector_97" d="M67.4522 83.5996C67.4522 83.5996 64.8573 84.7946 61.7174 90.4343C58.2826 96.589 58.8725 100.009 58.8225 107.434C58.7725 114.858 58.6226 127.183 58.6226 127.183C58.6226 127.183 68.1221 129.728 74.9368 129.328C81.7515 128.928 90.3962 127.383 90.3962 127.383C90.3962 127.383 88.5512 102.244 86.8063 95.0141C85.0614 87.7844 84.0114 84.5146 84.0114 84.5146C80.639 84.9826 77.2217 85.033 73.8369 84.6646C68.0521 84.0996 67.4522 83.5996 67.4522 83.5996Z" fill="#263238" stroke="#263238" stroke-width="0.249989" stroke-linecap="round" stroke-linejoin="round"/>
<path id="Vector_98" d="M78.3817 105.834C78.6417 106.689 78.8817 107.554 79.0917 108.419" stroke="white" stroke-width="0.249989" stroke-linecap="round" stroke-linejoin="round"/>
<path id="Vector_99" d="M72.3569 91.6846C74.371 95.401 76.0993 99.2653 77.5267 103.244" stroke="white" stroke-width="0.249989" stroke-linecap="round" stroke-linejoin="round"/>
<path id="Vector_100" d="M131.144 78.8206C130.844 78.6206 125.93 77.8506 125.93 77.8506L124.97 77.4556C124.97 77.4556 130.919 77.9306 130.969 77.6806C131.019 77.4306 131.219 77.1306 130.819 77.0806C130.419 77.0306 122.765 75.4757 122.765 75.4757C122.765 75.4757 124.71 73.6358 124.96 73.2358C125.21 72.8358 125.555 72.0359 125.155 72.0359C124.755 72.0359 124.655 72.2859 124.11 72.6358C123.565 72.9858 121.415 73.8358 120.815 74.3308C120.215 74.8257 118.425 76.1257 118.425 76.1257L97.6358 73.2658C97.6358 73.2658 90.3361 64.2662 88.7512 62.3463C87.6494 61.0651 86.3952 59.9233 85.0163 58.9464C83.4864 58.2715 83.5164 59.4014 83.5164 59.4014L86.7113 73.6008C86.7113 73.6008 94.9759 78.5256 95.4859 78.5256C95.9959 78.5256 118.325 79.2655 118.325 79.2655C118.325 79.2655 119.825 79.9655 120.765 80.5605C121.705 81.1555 127.699 83.0604 127.699 83.0604C127.699 83.0604 128.099 82.8604 127.649 82.5104C127.199 82.1604 124.31 80.7655 124.31 80.7655L130.309 82.0654C130.309 82.0654 130.659 81.8154 130.509 81.5654C130.359 81.3155 125.01 79.2705 125.01 79.2705L131.009 79.5705C131.009 79.5705 131.439 79.0206 131.144 78.8206Z" fill="white" stroke="#263238" stroke-width="0.249989" stroke-linecap="round" stroke-linejoin="round"/>
<path id="Vector_101" d="M96.3808 71.7209C94.2259 69.066 89.9211 63.7662 88.7512 62.3463C87.6494 61.0651 86.3952 59.9233 85.0163 58.9464C83.4864 58.2715 83.5164 59.4014 83.5164 59.4014L86.7113 73.6008C86.7113 73.6008 90.4411 75.8207 93.041 77.2806L96.3808 71.7209Z" fill="white" stroke="#263238" stroke-width="0.249989" stroke-linecap="round" stroke-linejoin="round"/>
<path id="Vector_102" d="M74.2869 57.7303C74.2869 57.7303 69.9471 57.9303 67.2872 60.8751C64.6273 63.82 64.9423 70.2997 66.0422 74.1895C67.1422 78.0794 68.5421 80.2243 68.2371 81.5742C67.9322 82.9242 66.8422 83.3691 67.4372 84.6141C68.0322 85.859 71.477 87.209 77.5617 87.009C83.6465 86.809 84.7964 85.509 84.8464 84.3691C84.8964 83.2291 84.4464 82.2742 84.5964 81.5742C84.7464 80.8743 89.1362 76.9844 89.1362 72.6946C89.1362 68.4048 87.2413 66.9099 86.7913 63.815C86.3414 60.7201 86.4913 60.2752 84.6464 58.9252C82.8015 57.5753 76.7318 56.8803 74.2869 57.7303Z" fill="white" stroke="#263238" stroke-width="0.249989" stroke-linecap="round" stroke-linejoin="round"/>
<path id="Vector_103" d="M72.317 72.6006C70.8666 73.8143 69.2567 74.8237 67.5322 75.6005" stroke="#263238" stroke-width="0.249989" stroke-linecap="round" stroke-linejoin="round"/>
<path id="Vector_104" d="M72.7969 73.0996C72.7969 73.0996 71.7219 76.5695 69.087 78.4844" stroke="#263238" stroke-width="0.249989" stroke-linecap="round" stroke-linejoin="round"/>
<path id="Vector_105" d="M83.5665 60.8701L84.0665 65.6599L81.9666 63.215L83.5665 60.8701Z" fill="white" stroke="#263238" stroke-width="0.249989" stroke-linecap="round" stroke-linejoin="round"/>
<path id="Vector_106" d="M80.7716 66.0605L83.5665 60.8707L81.0216 58.1309L80.7716 66.0605Z" fill="white" stroke="#263238" stroke-width="0.249989" stroke-linecap="round" stroke-linejoin="round"/>
<path id="Vector_107" d="M75.3868 49.251C75.8226 50.9802 76.0393 52.7574 76.0318 54.5407C76.0172 55.6955 75.9001 56.8466 75.6818 57.9806L80.7716 66.0602L82.2165 58.5606L83.1665 53.3708C83.1665 53.3708 77.3818 53.0408 75.3868 49.251Z" fill="white" stroke="#263238" stroke-width="0.249989" stroke-linecap="round" stroke-linejoin="round"/>
<path id="Vector_108" d="M80.4716 61.7207L80.7715 66.0605L79.2766 63.7156L80.4716 61.7207Z" fill="white" stroke="#263238" stroke-width="0.249989" stroke-linecap="round" stroke-linejoin="round"/>
<path id="Vector_109" d="M73.9869 57.7804L78.6267 66.1101L80.4717 61.7203L75.5369 54.9355L73.9869 57.7804Z" fill="white" stroke="#263238" stroke-width="0.249989" stroke-linecap="round" stroke-linejoin="round"/>
<path id="Vector_110" d="M155.273 61.666H113.17V96.2145H155.273V61.666Z" fill="#92E3A9"/>
<g id="Clip path group_12">
<mask id="mask11_558_5007" style="mask-type:luminance" maskUnits="userSpaceOnUse" x="113" y="61" width="43" height="36">
<g id="clip-path-12">
<path id="Vector_111" d="M155.273 61.666H113.17V96.2145H155.273V61.666Z" fill="white"/>
</g>
</mask>
<g mask="url(#mask11_558_5007)">
<g id="Group_13">
<path id="Vector_112" opacity="0.2" d="M155.273 61.666H113.17V96.2145H155.273V61.666Z" fill="black"/>
</g>
</g>
</g>
<path id="Vector_113" d="M155.273 61.666H113.17V96.2145H155.273V61.666Z" stroke="#263238" stroke-width="0.249989" stroke-linecap="round" stroke-linejoin="round"/>
<path id="Vector_114" d="M146.359 61.666H104.255V96.2145H146.359V61.666Z" fill="#92E3A9" stroke="#263238" stroke-width="0.249989" stroke-linecap="round" stroke-linejoin="round"/>
<path id="Vector_115" d="M162.208 107.843C160.858 105.703 155.273 96.2139 155.273 96.2139H146.364L150.948 107.843H162.208Z" fill="#92E3A9"/>
<g id="Clip path group_13">
<mask id="mask12_558_5007" style="mask-type:luminance" maskUnits="userSpaceOnUse" x="146" y="96" width="17" height="12">
<g id="clip-path-13">
<path id="Vector_116" d="M162.208 107.842C160.858 105.702 155.273 96.2129 155.273 96.2129H146.364L150.948 107.842H162.208Z" fill="white"/>
</g>
</mask>
<g mask="url(#mask12_558_5007)">
<g id="Group_14">
<path id="Vector_117" opacity="0.2" d="M162.208 107.842C160.858 105.702 155.273 96.2129 155.273 96.2129H146.364L150.948 107.842H162.208Z" fill="black"/>
</g>
</g>
</g>
<path id="Vector_118" d="M162.208 107.843C160.858 105.703 155.273 96.2139 155.273 96.2139H146.364L150.948 107.843H162.208Z" stroke="#263238" stroke-width="0.249989" stroke-linecap="round" stroke-linejoin="round"/>
<path id="Vector_119" d="M97.2958 107.843C98.6457 105.703 104.225 96.2139 104.225 96.2139H113.14L108.555 107.843H97.2958Z" fill="#92E3A9" stroke="#263238" stroke-width="0.249989" stroke-linecap="round" stroke-linejoin="round"/>
<path id="Vector_120" d="M104.226 96.2139L100.351 107.843H144.324L146.364 96.2139H104.226Z" fill="#92E3A9" stroke="#263238" stroke-width="0.249989" stroke-linecap="round" stroke-linejoin="round"/>
<path id="Vector_121" d="M160.693 74.165V85.7345" stroke="#263238" stroke-width="0.249989" stroke-linecap="round" stroke-linejoin="round"/>
<path id="Vector_122" d="M162.883 79.1689V88.5485" stroke="#263238" stroke-width="0.249989" stroke-linecap="round" stroke-linejoin="round"/>
<path id="Vector_123" d="M99.7307 85.7344V92.9241" stroke="#263238" stroke-width="0.249989" stroke-linecap="round" stroke-linejoin="round"/>
<path id="Vector_124" d="M97.8558 89.7998V95.4246" stroke="#263238" stroke-width="0.249989" stroke-linecap="round" stroke-linejoin="round"/>
<g id="Vector_125">
<path d="M67.0521 70.1502C68.5442 71.8401 70.2758 73.3022 72.1919 74.49C75.1918 76.2849 86.1913 82.5196 87.0562 82.8696C87.9212 83.2196 114.19 78.9298 114.19 78.9298C114.19 78.9298 115.69 79.6297 116.635 80.2247C117.58 80.8197 123.57 82.7246 123.57 82.7246C123.57 82.7246 123.97 82.5246 123.52 82.1796C123.07 81.8347 120.18 80.4297 120.18 80.4297L126.18 81.7297C126.18 81.7297 126.53 81.4797 126.38 81.2297C126.23 80.9797 120.88 78.9348 120.88 78.9348L126.879 79.2348C126.879 79.2348 127.329 78.6848 127.029 78.4848C126.73 78.2848 120.585 76.8849 120.585 76.8849C120.585 76.8849 127.119 76.3349 127.169 76.0849C127.219 75.8349 127.419 75.5399 127.019 75.4899C126.62 75.4399 118.44 74.64 118.44 74.64C118.44 74.64 120.585 73.295 120.835 72.895C121.085 72.4951 121.435 71.6951 121.035 71.6951C120.635 71.6951 120.535 71.9451 119.99 72.2951C119.445 72.6451 117.295 73.495 116.695 73.99C116.095 74.485 114.3 75.7899 114.3 75.7899L90.2611 75.8399L75.3368 64.0654" fill="white"/>
<path d="M67.0521 70.1502C68.5442 71.8401 70.2758 73.3022 72.1919 74.49C75.1918 76.2849 86.1913 82.5196 87.0562 82.8696C87.9212 83.2196 114.19 78.9298 114.19 78.9298C114.19 78.9298 115.69 79.6297 116.635 80.2247C117.58 80.8197 123.57 82.7246 123.57 82.7246C123.57 82.7246 123.97 82.5246 123.52 82.1796C123.07 81.8347 120.18 80.4297 120.18 80.4297L126.18 81.7297C126.18 81.7297 126.53 81.4797 126.38 81.2297C126.23 80.9797 120.88 78.9348 120.88 78.9348L126.879 79.2348C126.879 79.2348 127.329 78.6848 127.029 78.4848C126.73 78.2848 120.585 76.8849 120.585 76.8849C120.585 76.8849 127.119 76.3349 127.169 76.0849C127.219 75.8349 127.419 75.5399 127.019 75.4899C126.62 75.4399 118.44 74.64 118.44 74.64C118.44 74.64 120.585 73.295 120.835 72.895C121.085 72.4951 121.435 71.6951 121.035 71.6951C120.635 71.6951 120.535 71.9451 119.99 72.2951C119.445 72.6451 117.295 73.495 116.695 73.99C116.095 74.485 114.3 75.7899 114.3 75.7899L90.2611 75.8399L75.3368 64.0654" stroke="#263238" stroke-width="0.249989" stroke-linecap="round" stroke-linejoin="round"/>
</g>
<path id="Vector_126" d="M127.01 75.4901C126.615 75.4401 118.43 74.6402 118.43 74.6402C118.43 74.6402 120.575 73.2952 120.825 72.8953C121.075 72.4953 121.425 71.6953 121.025 71.6953C120.625 71.6953 120.525 71.9453 119.98 72.2953C119.435 72.6453 117.285 73.4952 116.685 73.9902C116.085 74.4852 114.29 75.7901 114.29 75.7901L90.2512 75.8401L87.5863 73.7252C86.5863 75.4801 84.7164 78.77 83.5015 80.9399C85.3714 81.9799 86.7863 82.7548 87.0713 82.8698C87.9213 83.2198 114.205 78.93 114.205 78.93C114.205 78.93 115.705 79.63 116.65 80.2249C117.595 80.8199 123.585 82.7248 123.585 82.7248C123.585 82.7248 123.985 82.5248 123.535 82.1799C123.085 81.8349 120.195 80.4299 120.195 80.4299L126.195 81.7299C126.195 81.7299 126.545 81.4799 126.395 81.2299C126.245 80.9799 120.895 78.935 120.895 78.935L126.895 79.235C126.895 79.235 127.345 78.685 127.045 78.485C126.745 78.285 120.585 76.8851 120.585 76.8851C120.585 76.8851 127.12 76.3351 127.17 76.0851C127.22 75.8351 127.41 75.5401 127.01 75.4901Z" fill="white" stroke="#263238" stroke-width="0.249989" stroke-linecap="round" stroke-linejoin="round"/>
<path id="Vector_127" d="M86.7563 45.0612C86.8415 44.9578 86.9541 44.8803 87.0812 44.8378C87.2083 44.7952 87.3448 44.7892 87.4751 44.8205C87.6054 44.8518 87.7243 44.9191 87.8182 45.0147C87.9122 45.1103 87.9773 45.2303 88.0063 45.3612C88.0898 45.9036 88.0619 46.4572 87.9244 46.9885C87.7869 47.5197 87.5425 48.0174 87.2063 48.4511C86.6564 49.001 86.1564 49.151 86.1564 48.4511C86.2952 47.3111 86.4955 46.1795 86.7563 45.0612Z" fill="white" stroke="#263238" stroke-width="0.249989" stroke-linecap="round" stroke-linejoin="round"/>
<path id="Vector_128" d="M80.6165 36.3223C80.4412 38.7555 79.4 41.0454 77.6816 42.777C76.0808 44.3512 74.2705 45.6971 72.3019 46.7768C72.3019 46.7768 72.5919 48.3417 73.1818 48.8317C73.7718 49.3217 74.9418 49.2267 74.9418 49.2267C75.622 51.0864 76.7281 52.761 78.1716 54.1165C80.5165 56.2664 83.2564 56.0714 84.8213 52.8465C86.3863 49.6217 87.1712 46.3868 86.9762 44.5269L86.7812 42.667C86.7812 42.667 81.6915 39.8421 80.6165 36.3223Z" fill="white" stroke="#263238" stroke-width="0.249989" stroke-linecap="round" stroke-linejoin="round"/>
<path id="Vector_129" d="M80.3216 45.9915C80.5701 45.9915 80.7715 45.6334 80.7715 45.1916C80.7715 44.7498 80.5701 44.3916 80.3216 44.3916C80.073 44.3916 79.8716 44.7498 79.8716 45.1916C79.8716 45.6334 80.073 45.9915 80.3216 45.9915Z" fill="#263238"/>
<path id="Vector_130" d="M82.7665 52.3753C83.015 52.3753 83.2165 52.0172 83.2165 51.5754C83.2165 51.1335 83.015 50.7754 82.7665 50.7754C82.518 50.7754 82.3165 51.1335 82.3165 51.5754C82.3165 52.0172 82.518 52.3753 82.7665 52.3753Z" fill="#263238"/>
<path id="Vector_131" d="M84.6614 45.9915C84.9099 45.9915 85.1114 45.6334 85.1114 45.1916C85.1114 44.7498 84.9099 44.3916 84.6614 44.3916C84.4129 44.3916 84.2114 44.7498 84.2114 45.1916C84.2114 45.6334 84.4129 45.9915 84.6614 45.9915Z" fill="#263238"/>
<path id="Vector_132" d="M83.7616 44.3418C83.5898 44.9407 83.5388 45.5679 83.6116 46.1867C83.7616 47.0367 84.4615 48.4816 83.8616 48.7316C83.5878 48.8565 83.285 48.9039 82.9861 48.8686C82.6873 48.8334 82.4038 48.7168 82.1666 48.5316" stroke="#263238" stroke-width="0.249989" stroke-linecap="round" stroke-linejoin="round"/>
<path id="Vector_133" d="M79.0217 43.7458C79.0217 43.7458 79.2617 42.2159 81.2666 42.3909" stroke="#263238" stroke-width="0.249989" stroke-linecap="round" stroke-linejoin="round"/>
<path id="Vector_134" d="M84.3915 42.8612C84.3915 42.8612 86.2614 41.3612 86.8664 44.1061" stroke="#263238" stroke-width="0.249989" stroke-linecap="round" stroke-linejoin="round"/>
</g>
</g>
</svg>
