<svg width="24" height="24" viewBox="0 0 24 24" fill="none" xmlns="http://www.w3.org/2000/svg">
<g id="Icon/Eye">
<path id="coolicon" d="M19.6108 20.7098L16.4009 17.4999C15.016 18.1304 13.5092 18.4482 11.9877 18.4305C10.4189 18.45 8.86639 18.1115 7.4482 17.4406C6.3489 16.9042 5.36177 16.1635 4.53954 15.2579C3.66675 14.3223 2.98076 13.2286 2.5185 12.0355L2.42285 11.7352L2.52328 11.4329C3.21464 9.66944 4.37814 8.13034 5.88627 6.98432L3.37933 4.47738L4.73084 3.12683L20.9614 19.3574L19.6127 20.7098H19.6108ZM7.23969 8.3387C6.01723 9.19562 5.05188 10.37 4.44772 11.7352C5.7432 14.7241 8.73167 16.6196 11.9877 16.5176C12.9918 16.5258 13.9901 16.3641 14.9403 16.0393L13.2186 14.3177C12.8354 14.5055 12.4145 14.6036 11.9877 14.6046C10.407 14.5947 9.12813 13.3158 9.11822 11.7352C9.11867 11.3074 9.21682 10.8854 9.40516 10.5013L7.23969 8.3387ZM19.4979 15.1881L18.1665 13.8576C18.7267 13.2243 19.1858 12.5084 19.5276 11.7352C18.2338 8.7448 15.2442 6.84857 11.9877 6.95275C11.7514 6.95275 11.5142 6.96136 11.2846 6.97762L9.59646 5.28752C10.3823 5.1194 11.184 5.03635 11.9877 5.03979C13.5564 5.02032 15.1089 5.3589 16.5271 6.02975C17.6264 6.56608 18.6136 7.30684 19.4358 8.21244C20.3082 9.14688 20.9941 10.2393 21.4568 11.431L21.5525 11.7352L21.452 12.0374C21.0042 13.2025 20.3417 14.2731 19.4989 15.1938L19.4979 15.1881Z" fill="black"/>
</g>
</svg>
