<svg width="44" height="43" viewBox="0 0 44 43" fill="none" xmlns="http://www.w3.org/2000/svg">
<g id="Frame">
<path id="Vector" d="M22.1056 38.0883C31.4769 38.0883 39.0739 30.4913 39.0739 21.12C39.0739 11.7486 31.4769 4.15161 22.1056 4.15161C12.7342 4.15161 5.13721 11.7486 5.13721 21.12C5.13721 30.4913 12.7342 38.0883 22.1056 38.0883Z" fill="#50B651"/>
<path id="Vector_2" opacity="0.663" fill-rule="evenodd" clip-rule="evenodd" d="M39.0215 21.0716C39.0215 30.4724 31.4007 38.0931 22.002 38.0931C12.6033 38.0931 4.98047 30.4724 4.98047 21.0716C4.98047 16.913 5.09703 16.2947 6.73394 13.9272C6.73394 13.9272 6.64947 16.6013 8.6103 18.1926C9.82953 19.1813 11.102 18.4675 13.4311 17.3949C15.9506 16.2335 17.9989 15.4843 19.5969 15.6819C22.0041 15.9801 29.4239 20.436 33.2961 19.5487C36.3896 18.8413 36.0631 11.5479 36.0631 11.5479C39.4417 14.847 39.0215 17.0769 39.0215 21.0716Z" fill="url(#paint0_linear_591_3582)"/>
<path id="Vector_3" opacity="0.586" fill-rule="evenodd" clip-rule="evenodd" d="M29.3062 33.5733C35.4622 27.7827 36.4854 21.1489 32.376 13.6719C32.3968 13.6871 32.6511 12.8098 33.1387 11.04C35.3257 13.6885 36.4887 16.9576 36.6275 20.8471C36.6263 25.8851 34.1859 30.1272 29.3062 33.5733Z" fill="url(#paint1_linear_591_3582)"/>
<path id="Vector_4" opacity="0.744" fill-rule="evenodd" clip-rule="evenodd" d="M26.386 11.0783C23.4146 9.43376 20.0056 6.12573 20.4588 5.43102C20.9119 4.7363 26.7935 4.85582 29.7654 6.50033C32.7373 8.14484 35.2665 13.0779 34.8138 13.7727C34.3611 14.4674 29.3574 12.7228 26.386 11.0783Z" fill="url(#paint2_radial_591_3582)"/>
<path id="Vector_5" fill-rule="evenodd" clip-rule="evenodd" d="M28.9752 25.296C26.5101 25.296 24.5117 23.2406 24.5117 20.7054C24.5117 18.1702 26.5101 16.1152 28.9752 16.1152C31.4403 16.1152 33.4391 18.1702 33.4391 20.7054C33.4391 23.2406 31.4407 25.296 28.9752 25.296ZM29.0069 23.8399C30.5454 23.8399 31.7942 22.4365 31.7942 20.7054C31.7942 18.9743 30.5454 17.5722 29.0069 17.5722C27.4684 17.5722 26.2196 18.9756 26.2196 20.7063C26.2196 22.4369 27.4684 23.8399 29.0069 23.8399Z" fill="white"/>
<path id="Vector_6" fill-rule="evenodd" clip-rule="evenodd" d="M19.7651 12.4209H22.9815V25.2467H21.2158V13.8276H19.7651V12.4209Z" fill="white"/>
<path id="Vector_7" fill-rule="evenodd" clip-rule="evenodd" d="M17.3679 16.2474H19.0374V26.9582C19.0374 27.9342 18.0107 28.9507 17.0102 29.3883C16.5372 29.5949 15.6645 29.7177 14.3919 29.7565V28.691C15.6366 28.5522 16.4767 28.2753 16.9123 27.8603C17.1636 27.511 17.3207 27.1029 17.3684 26.6753V23.5286C16.9221 24.4754 16.3602 25.1031 15.6825 25.4117C14.978 25.7918 13.5443 25.7293 12.9589 25.4117C12.3736 25.0941 11.515 24.2579 11.1214 23.0125C11.0125 22.6687 10.7413 21.7333 10.7696 20.7421C10.795 19.7982 11.1075 18.7995 11.3672 18.389C11.8132 17.6879 12.5163 16.8099 13.5814 16.4429C14.1017 16.2636 15.066 16.1991 16.4743 16.2495V17.3091C15.4278 17.2384 14.7749 17.2738 14.5156 17.4151C14.1266 17.6263 13.2486 17.8868 12.9589 19.8003C12.6692 21.7139 12.9674 23.2798 13.8859 23.7701C14.2006 23.9391 14.7572 24.1388 15.2716 23.9627C16.2598 23.6249 17.1897 22.42 17.2607 21.6037C17.3322 20.7753 17.3679 18.9899 17.3679 16.2474Z" fill="white"/>
<path id="Vector_8" fill-rule="evenodd" clip-rule="evenodd" d="M38.4882 24.4749C36.9117 32.0661 30.185 37.7699 22.1267 37.7699C12.8978 37.7699 5.41602 30.2881 5.41602 21.0592C5.41602 15.3258 8.30341 10.2668 12.7031 7.25781C9.1282 10.2225 6.8519 14.7012 6.8519 19.7095C6.8519 28.6428 14.0938 35.8843 23.0267 35.8843C30.3016 35.8843 36.4539 31.0821 38.4882 24.4749Z" fill="url(#paint3_radial_591_3582)"/>
<path id="Vector_9" fill-rule="evenodd" clip-rule="evenodd" d="M22.1272 1.27393C11.1976 1.27393 2.33691 10.1342 2.33691 21.0638C2.33691 31.9934 11.1976 40.8541 22.1272 40.8541C33.0568 40.8541 41.9175 31.9934 41.9175 21.0638C41.9175 10.1342 33.0568 1.27393 22.1272 1.27393ZM22.1272 37.7749C12.8983 37.7749 5.41646 30.2931 5.41646 21.0642C5.41646 15.3308 8.30386 10.2719 12.7036 7.26283C15.4783 5.36242 18.764 4.34788 22.1272 4.35305C31.3561 4.35305 38.8379 11.8344 38.8379 21.0638C38.8385 22.2113 38.7215 23.3559 38.4887 24.4795C36.9122 32.0707 30.1855 37.7745 22.1272 37.7745V37.7749Z" fill="white"/>
</g>
<defs>
<linearGradient id="paint0_linear_591_3582" x1="21.3445" y1="13.8723" x2="23.5262" y2="33.5747" gradientUnits="userSpaceOnUse">
<stop stop-color="#123214"/>
<stop offset="0.46" stop-color="#3E7C37"/>
<stop offset="0.91" stop-color="#5FBB46"/>
</linearGradient>
<linearGradient id="paint1_linear_591_3582" x1="33.9485" y1="12.5905" x2="33.9485" y2="28.5226" gradientUnits="userSpaceOnUse">
<stop stop-color="white" stop-opacity="0"/>
<stop offset="0.64" stop-color="white" stop-opacity="0.43"/>
<stop offset="1" stop-color="white" stop-opacity="0.42"/>
</linearGradient>
<radialGradient id="paint2_radial_591_3582" cx="0" cy="0" r="1" gradientUnits="userSpaceOnUse" gradientTransform="translate(27.9979 9.71346) rotate(26.7606) scale(8.38486 3.49214)">
<stop offset="0.13" stop-color="white"/>
<stop offset="0.29" stop-color="white" stop-opacity="0.69"/>
<stop offset="0.45" stop-color="white" stop-opacity="0.4"/>
<stop offset="0.59" stop-color="white" stop-opacity="0.18"/>
<stop offset="0.69" stop-color="white" stop-opacity="0.05"/>
<stop offset="0.74" stop-color="white" stop-opacity="0"/>
</radialGradient>
<radialGradient id="paint3_radial_591_3582" cx="0" cy="0" r="1" gradientUnits="userSpaceOnUse" gradientTransform="translate(24.9923 17.209) rotate(39.84) scale(18.7902 20.4814)">
<stop offset="0.86" stop-opacity="0"/>
<stop offset="0.98" stop-opacity="0.47"/>
<stop offset="1"/>
</radialGradient>
</defs>
</svg>
