<svg width="25" height="25" viewBox="0 0 25 25" fill="none" xmlns="http://www.w3.org/2000/svg">
<g id="super-g">
<path id="Shape" d="M12.4997 4.79467C14.8281 4.79467 16.3988 5.80044 17.2944 6.64089L20.7939 3.224C18.6446 1.22622 15.8477 0 12.4997 0C7.64992 0 3.46147 2.78311 1.42236 6.83378L5.4317 9.94755C6.43747 6.95778 9.22058 4.79467 12.4997 4.79467Z" fill="#EA4335"/>
<path id="Shape_2" d="M24.404 12.6756C24.404 11.656 24.3213 10.912 24.1422 10.1404H12.5V14.7422H19.3338C19.196 15.8858 18.452 17.608 16.7987 18.7653L20.7116 21.7964C23.0538 19.6333 24.404 16.4507 24.404 12.6756Z" fill="#4285F4"/>
<path id="Shape_3" d="M5.44588 14.8524C5.1841 14.0809 5.03254 13.2542 5.03254 12.4C5.03254 11.5458 5.1841 10.7191 5.4321 9.94755L1.42276 6.83377C0.58232 8.51466 0.100098 10.4022 0.100098 12.4C0.100098 14.3978 0.58232 16.2853 1.42276 17.9662L5.44588 14.8524Z" fill="#FBBC05"/>
<path id="Shape_4" d="M12.4996 24.8C15.8476 24.8 18.6583 23.6978 20.7111 21.7964L16.7983 18.7653C15.7511 19.4956 14.3458 20.0053 12.4996 20.0053C9.22048 20.0053 6.43737 17.8422 5.44537 14.8524L1.43604 17.9662C3.47515 22.0169 7.64981 24.8 12.4996 24.8Z" fill="#34A853"/>
</g>
</svg>
