<svg width="32" height="16" viewBox="0 0 32 16" fill="none" xmlns="http://www.w3.org/2000/svg">
<path id="Vector" d="M15.5752 0.172852C7.0437 0.172852 0.127441 3.63101 0.127441 7.8967C0.127441 12.1625 7.0437 15.6206 15.5752 15.6206C24.1067 15.6206 31.023 12.1624 31.023 7.8967C31.023 3.63095 24.1067 0.172852 15.5752 0.172852ZM15.5752 14.4012C7.71711 14.4012 1.34688 11.489 1.34688 7.8967C1.34688 4.30436 7.71717 1.39223 15.5752 1.39223C23.4333 1.39223 29.8035 4.30436 29.8035 7.8967C29.8035 11.489 23.4332 14.4012 15.5752 14.4012ZM13.6271 6.54165V5.32202H17.9851V6.54165H16.4161V10.4714H15.1962V6.54165H13.6271ZM23.2454 5.32202V10.4714H22.0261L19.8144 7.40603V10.4714H18.5949V5.32202H19.8143L22.026 8.38743V5.32202H23.2454ZM7.86864 10.4714V5.32202H9.08808L10.4429 7.40603L11.7977 5.32202H13.0166V10.4714H11.7977V7.55881L10.8728 8.98052H10.013L9.08808 7.55881V10.4714H7.86864Z" fill="black"/>
</svg>
