<svg width="28" height="27" viewBox="0 0 28 27" fill="none" xmlns="http://www.w3.org/2000/svg">
<g id="Frame" clip-path="url(#clip0_591_3607)">
<path id="Vector" fill-rule="evenodd" clip-rule="evenodd" d="M9.43403 23.8057C9.77195 23.8057 10.0189 23.8773 10.1749 24.0204C10.3308 24.1636 10.4089 24.3862 10.4091 24.6883V26.3074H9.90219V24.7568C9.90219 24.4153 9.71074 24.2446 9.32786 24.2446C9.16247 24.2432 9.00011 24.2889 8.85971 24.3763C8.884 24.4785 8.89541 24.5833 8.89369 24.6883V26.3074H8.38681V24.7568C8.38681 24.4153 8.19537 24.2446 7.81249 24.2446C7.63778 24.2448 7.46451 24.2762 7.30086 24.3373V26.3074H6.79424V24.0594C6.96197 23.976 7.13953 23.9141 7.32273 23.875C7.51814 23.8294 7.71801 23.8058 7.91866 23.8044C8.2348 23.8044 8.46971 23.8659 8.62339 23.9888C8.8765 23.8679 9.15352 23.8053 9.43403 23.8057ZM12.1457 26.3817C11.7593 26.3817 11.4689 26.2712 11.2745 26.05C11.0801 25.8289 10.9828 25.5071 10.9826 25.0845C10.9826 24.2293 11.369 23.8018 12.1418 23.802C12.5312 23.802 12.824 23.9117 13.0201 24.1311C13.2163 24.3504 13.3145 24.6682 13.3147 25.0845C13.3147 25.5004 13.2133 25.8206 13.0107 26.045C12.808 26.2695 12.5197 26.3817 12.1457 26.3817ZM12.1407 25.9476C12.5849 25.9476 12.8069 25.6599 12.8067 25.0845C12.8067 24.7984 12.7541 24.5846 12.6487 24.4433C12.5433 24.3019 12.3743 24.2311 12.1418 24.2309C11.907 24.2309 11.7389 24.3033 11.6375 24.448C11.5362 24.5927 11.4855 24.8049 11.4855 25.0845C11.4855 25.3639 11.5378 25.5777 11.6423 25.7257C11.7468 25.8738 11.9129 25.9474 12.1407 25.9465V25.9476ZM15.0068 23.8068C15.3672 23.8068 15.6407 23.9156 15.8272 24.1334C16.0137 24.3512 16.1073 24.6597 16.1078 25.0589C16.1078 25.5402 15.996 25.8807 15.7724 26.0806C15.5488 26.2805 15.2647 26.3809 14.9199 26.3817C14.2281 26.3817 13.8822 26.1964 13.8822 25.8259V22.8791H14.3843V23.958C14.4853 23.9097 14.5913 23.8729 14.7004 23.8481C14.8006 23.8224 14.9034 23.8082 15.0068 23.8057V23.8068ZM14.8812 25.9378C15.1446 25.9378 15.329 25.8614 15.4344 25.7086C15.5398 25.5558 15.5925 25.3461 15.5925 25.0795C15.5925 24.8066 15.537 24.5985 15.426 24.4554C15.315 24.3122 15.1501 24.2407 14.9315 24.2409C14.8362 24.2416 14.7414 24.2538 14.6491 24.2773C14.5566 24.2996 14.4679 24.3351 14.3856 24.3827V25.6999C14.3847 25.858 14.5499 25.9369 14.8812 25.9368V25.9378ZM16.6805 23.0069H17.2211V23.4703H16.6805V23.0069ZM16.695 23.875H17.2019L17.2067 26.3085H16.695V23.875ZM17.9201 26.3085V22.9329H18.4222V26.3074L17.9201 26.3085ZM20.1202 23.7999C20.4967 23.7999 20.7726 23.9229 20.9479 24.1687C21.1232 24.4146 21.2093 24.7584 21.2061 25.2002H19.5063C19.5227 25.4408 19.5929 25.6237 19.7171 25.7489C19.8413 25.8742 20.0174 25.9367 20.2456 25.9365C20.5189 25.9368 20.7879 25.868 21.0275 25.7365V26.2144C20.7765 26.326 20.489 26.3817 20.165 26.3817C19.8014 26.3817 19.5158 26.2704 19.3082 26.0477C19.1006 25.825 18.9969 25.5088 18.9971 25.0993C18.9971 24.6798 19.0952 24.3589 19.2913 24.1363C19.4875 23.9138 19.7638 23.8017 20.1202 23.7999ZM20.1057 24.2214C19.9351 24.2214 19.8017 24.267 19.7052 24.3582C19.6088 24.4493 19.546 24.6037 19.5169 24.8213H20.6897C20.6671 24.6132 20.6091 24.4613 20.5159 24.3655C20.4226 24.2698 20.2859 24.2218 20.1057 24.2214ZM15.2647 4.15851C14.7057 4.02029 14.2754 3.95109 13.9738 3.95091C11.7242 3.95091 9.90034 5.76873 9.90034 8.01044C9.90034 10.2522 11.725 12.0702 13.9738 12.0702C16.2227 12.0702 18.0476 10.2524 18.0476 8.01044C18.0477 7.68293 18.0083 7.35661 17.9301 7.03857L21.1687 6.16628C21.431 7.16364 21.4807 8.20503 21.3143 9.22281C21.148 10.2406 20.7694 11.212 20.2032 12.0739L14.8403 22.0163H9.87215L13.4024 15.5091C13.4216 15.4732 13.365 15.3942 13.3176 15.39C9.54521 15.0475 6.59033 11.8861 6.59033 8.03732C6.59033 3.95934 9.90719 0.653813 13.9991 0.653813C14.7482 0.65299 15.4931 0.765528 16.2084 0.987607L15.2647 4.15851Z" fill="#006E53"/>
<path id="Vector_2" d="M13.9496 10.2448C15.1827 10.2448 16.1823 9.24517 16.1823 8.01205C16.1823 6.77894 15.1827 5.7793 13.9496 5.7793C12.7164 5.7793 11.7168 6.77894 11.7168 8.01205C11.7168 9.24517 12.7164 10.2448 13.9496 10.2448Z" fill="#D6E806"/>
<path id="Vector_3" d="M17.8064 6.4891C17.4196 5.5208 16.674 4.73911 15.7251 4.30692M19.2274 5.88C18.6811 4.53705 17.6482 3.44971 16.335 2.83528M20.5976 5.42343C19.9018 3.65298 18.5334 2.22995 16.7916 1.46533" stroke="#D6E806" stroke-width="0.50746" stroke-linecap="round"/>
</g>
<defs>
<clipPath id="clip0_591_3607">
<rect width="26.3452" height="26.3452" fill="white" transform="translate(0.827637 0.246094)"/>
</clipPath>
</defs>
</svg>
