<svg width="15" height="18" viewBox="0 0 15 18" fill="none" xmlns="http://www.w3.org/2000/svg">
<g id="notifications">
<path id="notifications_2" d="M0 15.3V13.5H1.8V7.2C1.8 5.955 2.175 4.84875 2.925 3.88125C3.675 2.91375 4.65 2.28 5.85 1.98V1.35C5.85 0.975 5.98125 0.65625 6.24375 0.39375C6.50625 0.13125 6.825 0 7.2 0C7.575 0 7.89375 0.13125 8.15625 0.39375C8.41875 0.65625 8.55 0.975 8.55 1.35V1.98C9.75 2.28 10.725 2.91375 11.475 3.88125C12.225 4.84875 12.6 5.955 12.6 7.2V13.5H14.4V15.3H0ZM7.2 18C6.705 18 6.28125 17.8237 5.92875 17.4713C5.57625 17.1187 5.4 16.695 5.4 16.2H9C9 16.695 8.82375 17.1187 8.47125 17.4713C8.11875 17.8237 7.695 18 7.2 18ZM3.6 13.5H10.8V7.2C10.8 6.21 10.4475 5.3625 9.7425 4.6575C9.0375 3.9525 8.19 3.6 7.2 3.6C6.21 3.6 5.3625 3.9525 4.6575 4.6575C3.9525 5.3625 3.6 6.21 3.6 7.2V13.5Z" fill="#1C1B1F"/>
</g>
</svg>
