<svg width="101" height="78" viewBox="0 0 101 78" fill="none" xmlns="http://www.w3.org/2000/svg">
<g id="Frame" clip-path="url(#clip0_778_1254)">
<path id="Vector" d="M29.1816 25.7664C29.1816 25.6661 29.2272 25.5658 29.2546 25.4609C29.2409 25.5293 29.2136 25.6342 29.1816 25.7664Z" fill="#EDEDFD"/>
<path id="Vector_2" d="M74.4525 38.6523C74.0372 39.9249 73.5125 41.159 72.884 42.3409L74.4525 38.6523Z" fill="#EDEDFD"/>
<path id="Vector_3" d="M59.7343 0.809082C57.8406 0.809082 55.9894 1.37066 54.4148 2.42276C52.8402 3.47486 51.613 4.97022 50.8883 6.7198C50.1636 8.46938 49.974 10.3946 50.3434 12.2519C50.7128 14.1093 51.6248 15.8153 52.9639 17.1544C54.3029 18.4935 56.009 19.4054 57.8663 19.7748C59.7237 20.1443 61.6488 19.9547 63.3984 19.23C65.148 18.5053 66.6434 17.2781 67.6955 15.7035C68.7476 14.1289 69.3092 12.2777 69.3092 10.384C69.3092 7.84454 68.3004 5.40913 66.5048 3.6135C64.7091 1.81786 62.2737 0.809082 59.7343 0.809082ZM59.7343 14.3279C58.9579 14.3279 58.1989 14.0977 57.5533 13.6663C56.9077 13.2349 56.4045 12.6218 56.1074 11.9045C55.8103 11.1872 55.7326 10.3978 55.884 9.63631C56.0355 8.8748 56.4094 8.17531 56.9584 7.62629C57.5074 7.07727 58.2069 6.70341 58.9684 6.55193C59.7299 6.40046 60.5192 6.47822 61.2366 6.77534C61.9539 7.07247 62.5671 7.57564 62.9984 8.22121C63.4298 8.86679 63.66 9.62578 63.66 10.4022C63.6552 11.4402 63.2395 12.434 62.5038 13.1663C61.7681 13.8985 60.7723 14.3097 59.7343 14.3096V14.3279Z" fill="url(#paint0_linear_778_1254)"/>
<path id="Vector (Stroke)" fill-rule="evenodd" clip-rule="evenodd" d="M54.2881 2.23315C55.9002 1.156 57.7954 0.581055 59.7343 0.581055C62.3341 0.581055 64.8275 1.61385 66.6659 3.45224C68.5043 5.29063 69.5371 7.78402 69.5371 10.3839C69.5371 12.3227 68.9622 14.218 67.885 15.8301C66.8079 17.4421 65.2768 18.6986 63.4856 19.4406C61.6944 20.1825 59.7234 20.3766 57.8218 19.9984C55.9203 19.6201 54.1736 18.6865 52.8026 17.3156C51.4317 15.9446 50.498 14.1979 50.1198 12.2964C49.7415 10.3948 49.9357 8.42374 50.6776 6.6325C51.4196 4.84126 52.676 3.3103 54.2881 2.23315ZM59.7343 1.037C57.8856 1.037 56.0785 1.58521 54.5414 2.61226C53.0043 3.63931 51.8063 5.09906 51.0989 6.80698C50.3914 8.51491 50.2063 10.3943 50.5669 12.2074C50.9276 14.0205 51.8178 15.686 53.125 16.9932C54.4322 18.3003 56.0976 19.1905 57.9108 19.5512C59.7239 19.9118 61.6032 19.7268 63.3111 19.0193C65.0191 18.3119 66.4789 17.1139 67.5059 15.5768C68.533 14.0397 69.0812 12.2325 69.0812 10.3839C69.0812 7.90495 68.0964 5.52753 66.3435 3.77464C64.5906 2.02176 62.2132 1.037 59.7343 1.037ZM61.1493 6.98591C60.4736 6.70604 59.7301 6.6328 59.0128 6.77547C58.2956 6.91815 57.6367 7.2703 57.1196 7.78744C56.6024 8.30457 56.2503 8.96344 56.1076 9.68073C55.9649 10.398 56.0381 11.1416 56.318 11.8172C56.5978 12.4929 57.0718 13.0704 57.6799 13.4767C58.2246 13.8407 58.8551 14.0526 59.5063 14.0928V14.0816L59.7343 14.0816C60.712 14.0816 61.6499 13.6944 62.3429 13.0046C63.0357 12.315 63.4273 11.3791 63.432 10.4016C63.4319 9.67046 63.215 8.95575 62.8088 8.34782C62.4025 7.73973 61.825 7.26578 61.1493 6.98591ZM59.9622 14.5313C60.9775 14.4756 61.9402 14.0488 62.6646 13.3278C63.443 12.553 63.8828 11.5015 63.8879 10.4032L63.8879 10.4022C63.8879 9.58064 63.6443 8.77757 63.1879 8.09451C62.7315 7.41143 62.0827 6.87905 61.3238 6.56467C60.5648 6.25029 59.7296 6.16802 58.9239 6.32829C58.1182 6.48856 57.3781 6.88413 56.7972 7.46504C56.2162 8.04594 55.8207 8.78605 55.6604 9.59178C55.5001 10.3975 55.5823 11.2327 55.8967 11.9917C56.2111 12.7507 56.7435 13.3994 57.4266 13.8558C58.1096 14.3122 58.9128 14.5558 59.7343 14.5558H59.9622V14.5313Z" fill="black"/>
<path id="Vector_4" d="M75.6103 31.3571C75.6114 33.8343 75.2221 36.2962 74.4567 38.6523L72.8883 42.3408V42.3637C68.3881 53.4796 67.54 61.1897 69.0857 66.8981C70.6313 72.6066 69.0857 74.5079 69.0857 74.5079L13.0043 57.5512C13.0043 57.5512 7.47823 53.3383 16.3965 47.8669C24.2434 43.0521 28.274 29.2643 29.1311 26.018C29.1311 25.9177 29.1767 25.831 29.1995 25.7535C29.2223 25.676 29.2588 25.5165 29.2725 25.4481C29.2861 25.3797 29.3043 25.325 29.3043 25.325C30.7818 19.8104 34.2118 15.0201 38.9565 11.845C43.7012 8.66989 49.4376 7.32614 55.0988 8.06361C60.76 8.80109 65.9608 11.5696 69.7337 15.8543C73.5066 20.1389 75.5949 25.6481 75.6103 31.3571Z" fill="url(#paint1_linear_778_1254)"/>
<path id="Vector (Stroke)_2" fill-rule="evenodd" clip-rule="evenodd" d="M55.0693 8.28962C49.4629 7.55929 43.782 8.89003 39.0833 12.0344C34.3845 15.1788 30.9876 19.9227 29.5245 25.3839L29.5227 25.3905L29.5207 25.3965L29.5206 25.3968L29.5205 25.3972L29.519 25.402C29.5176 25.4066 29.5154 25.4136 29.5129 25.4226C29.5078 25.4409 29.5013 25.4658 29.4959 25.4927C29.4816 25.5642 29.4436 25.7311 29.4181 25.8178C29.4102 25.8448 29.4008 25.8709 29.3934 25.8912L29.3909 25.898C29.3841 25.917 29.3786 25.932 29.3736 25.9475C29.3626 25.9811 29.3591 26.002 29.3591 26.0179V26.0475L29.3515 26.0761C28.9212 27.7058 27.6951 31.9791 25.5912 36.4513C23.4911 40.9152 20.4982 45.6175 16.5157 48.0612C12.0906 50.7759 11.335 53.1218 11.5813 54.7262C11.7068 55.5435 12.0957 56.2052 12.4592 56.6663C12.6403 56.8961 12.8134 57.0738 12.9405 57.1935C13.0039 57.2532 13.0557 57.2983 13.091 57.328C13.099 57.3347 13.1061 57.3406 13.1123 57.3457L68.9878 74.2401C69.018 74.1873 69.0549 74.1169 69.0952 74.0277C69.2075 73.779 69.3467 73.3822 69.4402 72.807C69.6272 71.6566 69.6318 69.7875 68.8656 66.9576C67.3027 61.1858 68.1671 53.4316 72.6603 42.3192V42.2943L74.2429 38.5722C74.9989 36.2419 75.3834 33.8071 75.3822 31.3572C75.3669 25.7036 73.2988 20.2479 69.5625 16.0049C65.8261 11.7617 60.6757 9.01996 55.0693 8.28962ZM75.6097 31.3571L75.8382 31.3564C75.8227 25.5922 73.7142 20.0297 69.9047 15.7036C66.0953 11.3774 60.8442 8.58211 55.1282 7.8375C49.4122 7.09288 43.6203 8.44964 38.8297 11.6555C34.0406 14.8603 30.578 19.6949 29.0855 25.2606L29.0835 25.267C29.081 25.2749 29.0778 25.2858 29.074 25.299C29.0667 25.3252 29.0571 25.3619 29.0489 25.4033C29.0358 25.4686 29.0008 25.6208 28.9807 25.6891C28.9773 25.7009 28.9724 25.7147 28.9648 25.7356L28.9624 25.7422C28.9559 25.7603 28.9475 25.7832 28.9399 25.8068C28.9247 25.8537 28.9082 25.9144 28.9041 25.9846C28.4714 27.6195 27.2554 31.8427 25.1786 36.2572C23.0874 40.7024 20.1416 45.3014 16.2773 47.6726C11.784 50.4291 10.8435 52.9254 11.1306 54.7954C11.2719 55.7152 11.7071 56.4487 12.1011 56.9485C12.2986 57.1991 12.4876 57.3933 12.6279 57.5254C12.6981 57.5915 12.7564 57.6423 12.7976 57.677C12.8183 57.6944 12.8347 57.7077 12.8463 57.717C12.8499 57.7199 12.8531 57.7224 12.8557 57.7244L12.86 57.7278L12.864 57.7309L12.8652 57.7319L12.8657 57.7322C12.8658 57.7323 12.866 57.7324 13.0042 57.5512L12.866 57.7324L12.8988 57.7574L69.166 74.7703L69.2625 74.6516L69.0856 74.5078C69.2625 74.6516 69.2626 74.6515 69.2628 74.6513L69.2631 74.6509L69.2639 74.6499L69.2658 74.6475L69.2712 74.6405C69.2755 74.6348 69.2812 74.6272 69.2881 74.6176C69.3018 74.5984 69.3204 74.5711 69.3426 74.5353C69.3871 74.4638 69.4462 74.3584 69.5107 74.2154C69.6399 73.9292 69.7905 73.4939 69.8902 72.8802C70.0897 71.6528 70.0851 69.7171 69.3056 66.8385C67.7791 61.2006 68.6068 53.5467 73.0995 42.4492L73.1162 42.408V42.3872L74.6665 38.7414L74.4566 38.6522L74.6735 38.7226C75.4463 36.3438 75.8393 33.8581 75.8382 31.357L75.6097 31.3571Z" fill="black"/>
<path id="Vector_5" d="M69.2374 74.4759C70.7497 70.2752 58.9844 62.1927 42.9587 56.4232C26.9331 50.6536 12.7158 49.3817 11.2034 53.5824C9.6911 57.7831 21.4564 65.8656 37.4821 71.6352C53.5077 77.4048 67.725 78.6766 69.2374 74.4759Z" fill="#00CE7C"/>
<path id="Vector (Stroke)_3" fill-rule="evenodd" clip-rule="evenodd" d="M17.8951 61.833C22.6303 65.086 29.5593 68.541 37.5592 71.4212C45.5592 74.3013 53.1004 76.0559 58.8225 76.5678C61.6853 76.8239 64.0795 76.7676 65.8438 76.393C67.6224 76.0153 68.6871 75.3316 69.0228 74.3991C69.3586 73.4666 68.974 72.2611 67.8443 70.8364C66.7236 69.4232 64.9147 67.8537 62.5457 66.2262C57.8104 62.9732 50.8814 59.5182 42.8815 56.6381C34.8815 53.7579 27.3404 52.0033 21.6183 51.4914C18.7555 51.2353 16.3613 51.2916 14.5969 51.6662C12.8184 52.0438 11.7536 52.7276 11.4179 53.6601C11.0822 54.5925 11.4668 55.7981 12.5965 57.2228C13.7171 58.636 15.526 60.2055 17.8951 61.833ZM12.2392 57.5061C11.0874 56.0535 10.5685 54.6735 10.9889 53.5056C11.4094 52.3378 12.6889 51.6052 14.5022 51.2202C16.3298 50.8321 18.7751 50.7793 21.6589 51.0373C27.4299 51.5536 35.0102 53.3197 43.0359 56.2091C51.0616 59.0985 58.0281 62.5696 62.8038 65.8504C65.1903 67.4898 67.0407 69.0892 68.2015 70.5531C69.3533 72.0057 69.8723 73.3857 69.4518 74.5536C69.0314 75.7214 67.7518 76.454 65.9385 76.839C64.1109 77.2271 61.6656 77.2799 58.7818 77.0219C53.0108 76.5057 45.4305 74.7396 37.4048 71.8501C29.3791 68.9607 22.4126 65.4897 17.6369 62.2088C15.2505 60.5694 13.4 58.97 12.2392 57.5061Z" fill="black"/>
<path id="Vector_6" d="M64.9687 73.9745C63.7696 77.3121 51.5775 75.9807 37.7441 71.0018C35.086 70.0443 32.5555 69.023 30.2165 67.9698C27.4841 66.7604 24.8258 65.3902 22.2556 63.8662C17.1217 60.7613 14.1991 57.8204 14.8693 55.9465C15.421 54.4236 18.2616 53.8719 22.5064 54.2002C26.7513 54.5284 32.2591 55.7002 38.3323 57.6426C39.5679 58.0347 40.8264 58.4632 42.0984 58.9192C55.9319 63.889 66.1724 70.6325 64.9687 73.9745Z" fill="black"/>
<path id="Vector_7" d="M38.4783 59.4801C38.4776 61.7182 37.6218 63.8714 36.0861 65.4995C34.5504 67.1276 32.4508 68.1075 30.2165 68.2388C30.0478 68.2388 29.8746 68.2388 29.7014 68.2388C28.0976 68.2379 26.5247 67.7977 25.1535 66.9658C23.7824 66.1339 22.6654 64.9422 21.9238 63.5202C21.1822 62.0982 20.8445 60.5001 20.9472 58.8997C21.05 57.2992 21.5893 55.7575 22.5065 54.4419C26.6967 54.7656 32.2592 55.942 38.3324 57.8843C38.4308 58.4105 38.4797 58.9448 38.4783 59.4801Z" fill="url(#paint2_radial_778_1254)"/>
<path id="Vector_8" d="M8.43593 37.5218C8.43593 37.5218 -0.847148 19.5803 16.2873 11.0085V9.82764C16.2873 9.82764 10.8798 10.3976 10.7612 10.58C10.6427 10.7623 3.68495 17.834 3.62568 18.0119C3.5664 18.1897 3.22901 25.4438 3.22901 25.4438C3.22901 25.4438 2.85059 32.1052 2.90987 32.4654C2.96914 32.8256 8.43593 37.5218 8.43593 37.5218Z" fill="#FFF1E9"/>
<path id="Vector_9" d="M8.60942 37.58L8.35863 37.6074C7.07286 36.4994 2.85994 32.8518 2.80067 32.4825C2.7414 32.1132 3.07877 26.0993 3.11524 25.4382C3.19731 23.7329 3.45721 18.143 3.51648 17.9743C3.55296 17.8695 4.42835 16.9393 8.04856 13.2279C9.35712 11.8601 10.5973 10.6062 10.6703 10.4922C10.7432 10.3783 10.8162 10.2734 16.2738 9.69434H16.4015V11.0622L16.3377 11.0941C11.4682 13.5289 8.28567 16.9667 6.87224 21.3027C4.31894 29.1541 8.49086 37.3748 8.53645 37.4569L8.60942 37.58ZM10.8389 10.6792C10.7158 10.8251 9.92711 11.6184 8.21275 13.4149C6.38896 15.3116 3.84474 17.9105 3.7262 18.0929C3.68972 18.2753 3.47544 22.6113 3.34322 25.4792C3.19276 28.151 2.98304 32.2181 3.02408 32.4688C3.14262 32.7561 6.04695 35.3322 8.10327 37.1104C7.24609 35.2137 4.45574 28.1055 6.65796 21.2708C8.08051 16.8937 11.2812 13.4285 16.1736 10.9619V9.98158C14.1993 10.164 11.1262 10.5287 10.8389 10.6609V10.6792Z" fill="black"/>
<path id="Vector_10" d="M17.249 34.1344C17.249 34.1344 11.9783 23.9486 21.7082 19.0882V18.418C21.7082 18.418 18.6397 18.7417 18.5713 18.8466C18.5029 18.9515 14.5544 22.9501 14.5179 23.0641C14.4815 23.1781 14.2945 27.2861 14.2945 27.2861C14.2945 27.2861 14.0802 31.0705 14.1121 31.2711C14.144 31.4717 17.249 34.1344 17.249 34.1344Z" fill="#FFF1E9"/>
<path id="Vector_11" d="M17.4224 34.1936L17.1716 34.221C15.74 32.9899 14.0302 31.4853 13.98 31.2801C13.9298 31.0749 14.1213 27.9061 14.1578 27.2724C14.2308 25.7267 14.3539 23.1232 14.3858 23.0229C14.4177 22.9226 14.6275 22.722 16.9802 20.2872C17.7142 19.5304 18.4073 18.8145 18.4574 18.7553C18.5076 18.696 18.5486 18.6139 21.649 18.2993H21.7767V19.1656L21.7129 19.1975C18.9772 20.5654 17.1534 22.5168 16.3646 24.9652C14.9193 29.4016 17.2765 34.0568 17.3039 34.0842L17.4224 34.1936ZM14.6229 23.1004C14.591 23.3649 14.477 25.7176 14.4041 27.2815C14.3311 28.8454 14.1989 31.0841 14.2217 31.2436C14.2445 31.4032 15.7901 32.7255 16.9254 33.7058C16.3601 32.3881 14.9877 28.5673 16.1868 24.8786C16.9984 22.3892 18.8176 20.4149 21.5898 19.0106V18.5547C20.5001 18.6732 18.8541 18.8693 18.6398 18.9422C18.5532 19.0425 18.1839 19.3982 17.1626 20.4742C16.1412 21.5502 14.7734 22.9135 14.6229 23.1004Z" fill="black"/>
<path id="Vector_12" d="M3.22898 36.9291C0.347398 29.5701 0.174141 22.9817 2.71832 17.3234C6.4206 9.11639 14.5319 6.07525 14.8739 5.95215L16.2827 9.80487L15.5805 7.88079L16.2873 9.80487C16.2189 9.80487 9.40707 12.4266 6.43886 19.0515C4.39166 23.6109 4.61506 29.137 7.04981 35.4108L3.22898 36.9291Z" fill="#FF7422"/>
<path id="Vector_13" d="M3.11507 36.8512C0.221335 29.4649 0.0556902 22.9479 2.61811 17.3002C6.33863 9.05673 14.4727 5.99273 14.842 5.86507L14.9469 5.82861L16.4059 9.69959L16.333 9.93213C16.2646 9.95949 9.49378 12.5265 6.54836 19.1195C4.51028 23.6789 4.72457 29.1502 7.16388 35.3876L7.2049 35.497L3.11507 36.8512ZM14.8101 6.12043C13.7842 6.52166 6.32493 9.64032 2.82783 17.3914C0.311002 22.9722 0.470584 29.4922 3.28377 36.7782L6.89032 35.3648C4.46013 29.1092 4.26863 23.6105 6.32039 19.0282C9.10622 12.8137 15.225 10.1282 16.1232 9.76343L14.8101 6.12043Z" fill="black"/>
<path id="Vector_14" d="M3.23389 36.9286L5.23093 38.6475L8.43623 37.5213L7.05472 35.4331L3.23389 36.9286Z" fill="#FFF1E9"/>
<path id="Vector_15" d="M5.20769 38.7749L3.11035 36.8509L7.09532 35.2915L8.60909 37.5712L5.20769 38.7749ZM3.44775 36.9512L5.27153 38.5059L8.2762 37.4481L7.02691 35.5559L3.44775 36.9512Z" fill="black"/>
<path id="Vector_16" d="M14.2904 33.7959C12.6536 29.6195 12.5578 25.8761 13.9986 22.68C16.1005 18.0156 20.7056 16.2967 20.9017 16.2192L21.6996 18.4077L21.3029 17.3135L21.7041 18.4077C21.6631 18.4077 17.7967 19.8987 16.1142 23.6603C14.947 26.2591 15.0655 29.3869 16.4607 32.9479L14.2904 33.7959Z" fill="#FF7422"/>
<path id="Vector_17" d="M14.2264 33.9473L14.1854 33.8379C12.5349 29.634 12.4391 25.8634 13.8936 22.6307C16.0183 17.9299 20.6644 16.1882 20.865 16.1152L20.9699 16.0742L21.818 18.281L21.745 18.5181C21.704 18.5181 17.874 20.0045 16.2189 23.7068C15.0654 26.2783 15.1839 29.3742 16.5654 32.9078L16.6065 33.0126L14.2264 33.9473ZM20.8331 16.3706C20.1081 16.6578 16.0365 18.4406 14.1033 22.7265C12.6853 25.8679 12.772 29.5657 14.3541 33.6692L16.3147 32.9032C14.9468 29.3559 14.842 26.2373 16.0092 23.6338C17.5457 20.196 20.9106 18.6184 21.558 18.3631L20.8331 16.3706Z" fill="black"/>
<path id="Vector_18" d="M14.2903 33.7973L15.4256 34.7776L17.2448 34.1392L16.4606 32.9492L14.2903 33.7973Z" fill="#FFF1E9"/>
<path id="Vector_19" d="M15.4258 34.905L14.2495 33.9475L14.3042 33.7514L16.5292 32.8076L17.4411 34.1755L15.4258 34.905ZM14.5139 33.8335L15.4532 34.645L17.0718 34.0751L16.4198 33.0857L14.5139 33.8335Z" fill="black"/>
<path id="Vector_20" d="M92.4803 33.2441C92.4803 33.2441 101.763 51.1811 84.6289 59.7574V60.9383C84.6289 60.9383 90.0364 60.3638 90.155 60.186C90.2735 60.0082 97.2313 52.9319 97.2905 52.7541C97.3498 52.5763 97.6872 45.3176 97.6872 45.3176C97.6872 45.3176 98.0656 38.6562 98.0064 38.3006C97.9471 37.9449 92.4803 33.2441 92.4803 33.2441Z" fill="#FFF1E9"/>
<path id="Vector_21" d="M92.2843 33.1817L92.5351 33.1543C93.8209 34.2622 98.0338 37.9099 98.0931 38.2792C98.1524 38.6485 97.8149 44.6624 97.7785 45.3235C97.6964 47.0288 97.4365 52.6187 97.3772 52.7874C97.3408 52.8922 96.4654 53.8224 92.8452 57.5338C91.5366 58.9016 90.2964 60.1555 90.2235 60.2466C90.1505 60.3378 90.0775 60.4701 84.6199 61.0491H84.4922V59.6813L84.556 59.6494C89.4255 57.2101 92.608 53.7768 94.0215 49.4407C96.5748 41.5893 92.4029 33.3686 92.3573 33.2865L92.2843 33.1817ZM90.0548 60.0825C90.1779 59.9366 90.9666 59.1387 92.681 57.3468C94.5048 55.4501 97.049 52.8512 97.1675 52.6688C97.204 52.4819 97.4183 48.1459 97.5505 45.2825C97.701 42.6107 97.9107 38.5436 97.8696 38.2883C97.7511 38.0056 94.8468 35.4249 92.7904 33.6513C93.6476 35.5481 96.438 42.6517 94.2358 49.4863C92.8132 53.8634 89.6125 57.3332 84.7202 59.7998V60.7801C86.6944 60.6023 89.7675 60.2376 90.0548 60.1053V60.0825Z" fill="black"/>
<path id="Vector_22" d="M83.6486 36.6279C83.6486 36.6279 88.9193 46.8183 79.1895 51.6742V52.3398C79.1895 52.3398 82.258 52.0161 82.3264 51.9158C82.3948 51.8155 86.3478 47.8122 86.3797 47.6937C86.4116 47.5752 86.6031 43.4716 86.6031 43.4716C86.6031 43.4716 86.8174 39.6918 86.7855 39.4867C86.7536 39.2815 83.6486 36.6279 83.6486 36.6279Z" fill="#FFF1E9"/>
<path id="Vector_23" d="M83.4705 36.5689L83.7213 36.5415C85.153 37.7726 86.8628 39.2772 86.9129 39.4823C86.9631 39.6875 86.7716 42.8609 86.7351 43.4947C86.6622 45.0358 86.5391 47.6438 86.5071 47.7441C86.4752 47.8444 86.2655 48.045 83.9128 50.4798C83.1787 51.2366 82.4857 51.948 82.4355 52.0118C82.3854 52.0756 82.3443 52.1531 79.2439 52.4677H79.1162V51.6014L79.1801 51.5695C81.9157 50.2016 83.7396 48.2547 84.5283 45.8063C85.9737 41.37 83.6164 36.7147 83.5891 36.6874L83.4705 36.5689ZM86.27 47.6666C86.302 47.4022 86.4159 45.0449 86.4889 43.481C86.5618 41.9171 86.6941 39.683 86.6713 39.5188C86.6485 39.3547 85.1028 38.0416 83.9721 37.0567C84.5329 38.379 85.9053 42.1998 84.7061 45.8884C83.8945 48.3779 82.0753 50.3521 79.3032 51.7564V52.2124C80.3929 52.0938 82.0388 51.8978 82.2531 51.8203C82.3398 51.72 82.7091 51.3643 83.7304 50.2883C84.7518 49.2123 86.1196 47.8535 86.27 47.6666Z" fill="black"/>
<path id="Vector_24" d="M97.6648 33.8379C100.546 41.1969 100.72 47.7853 98.1754 53.4436C94.4731 61.6506 86.3618 64.6872 86.0199 64.8149L84.611 60.9576L85.3177 62.8863L84.6064 60.9622C84.6748 60.9348 91.4867 58.3405 94.4549 51.711C96.5066 47.1516 96.2787 41.63 93.8439 35.3562L97.6648 33.8379Z" fill="#FF7422"/>
<path id="Vector_25" d="M97.783 33.9111C100.678 41.302 100.833 47.8038 98.28 53.4667C94.5595 61.7102 86.4254 64.7742 86.0561 64.8973L85.9512 64.9383L84.4922 61.0673L84.5652 60.8302C84.6335 60.8074 91.4043 58.2404 94.3497 51.6429C96.3878 47.0834 96.1735 41.6121 93.7342 35.3748L93.6932 35.2698L97.783 33.9111ZM86.0971 64.6419C87.123 64.2407 94.5823 61.1175 98.0794 53.3664C100.596 47.7902 100.437 41.2656 97.6235 33.9795L94.0169 35.393C96.4471 41.6531 96.6386 47.1472 94.5868 51.7341C91.8056 57.9486 85.6822 60.6296 84.784 60.9989L86.0971 64.6419Z" fill="black"/>
<path id="Vector_26" d="M97.6647 33.8381L95.6631 32.1191L92.4624 33.2453L93.8439 35.3336L97.6647 33.8381Z" fill="#FFF1E9"/>
<path id="Vector_27" d="M95.6718 31.9858L97.7692 33.9099L93.7842 35.4738L92.2705 33.1941L95.6718 31.9858ZM97.4318 33.8096L95.608 32.2548L92.6033 33.3127L93.8526 35.2003L97.4318 33.8096Z" fill="black"/>
<path id="Vector_28" d="M86.6031 36.9648C88.24 41.1459 88.3357 44.8846 86.895 48.0853C84.793 52.7451 80.188 54.4686 79.9919 54.5415L79.194 52.353L79.5907 53.4473L79.1895 52.353C79.2305 52.353 83.0969 50.8666 84.7794 47.1051C85.9466 44.5016 85.828 41.3784 84.4328 37.8175L86.6031 36.9648Z" fill="#FF7422"/>
<path id="Vector_29" d="M86.667 36.8281L86.708 36.933C88.3585 41.1414 88.4543 44.9121 86.9998 48.1402C84.8751 52.8455 80.229 54.5872 80.0284 54.6602L79.9235 54.6966L79.0754 52.4899L79.1484 52.2573C79.1894 52.2573 83.0194 50.7709 84.6745 47.0641C85.828 44.4926 85.7095 41.4013 84.3279 37.8677L84.2869 37.7628L86.667 36.8281ZM80.0603 54.4049C80.7853 54.1131 84.8569 52.3303 86.7901 48.049C88.2081 44.9029 88.1214 41.2098 86.5393 37.1062L84.5787 37.8723C85.9466 41.4195 86.0514 44.5382 84.8842 47.1416C83.3477 50.5795 79.9828 52.1571 79.3354 52.4078L80.0603 54.4049Z" fill="black"/>
<path id="Vector_30" d="M86.6035 36.97L85.4682 35.9897L83.6489 36.6326L84.4332 37.8181L86.6035 36.97Z" fill="#FFF1E9"/>
<path id="Vector_31" d="M85.4909 35.8613L86.6672 36.8188L86.6125 37.0149L84.3875 37.9587L83.4756 36.5908L85.4909 35.8613ZM86.4028 36.9282L85.4635 36.1212L83.8449 36.6866L84.4969 37.676L86.4028 36.9282Z" fill="black"/>
</g>
<defs>
<linearGradient id="paint0_linear_778_1254" x1="52.9638" y1="17.1544" x2="66.5047" y2="3.61347" gradientUnits="userSpaceOnUse">
<stop stop-color="#00CE7C"/>
<stop offset="1" stop-color="#6FF9C2"/>
</linearGradient>
<linearGradient id="paint1_linear_778_1254" x1="20.7281" y1="64.7484" x2="67.8207" y2="19.3116" gradientUnits="userSpaceOnUse">
<stop stop-color="#00CE7C"/>
<stop offset="1" stop-color="#6FF9C2"/>
</linearGradient>
<radialGradient id="paint2_radial_778_1254" cx="0" cy="0" r="1" gradientUnits="userSpaceOnUse" gradientTransform="translate(29.7059 61.3586) scale(7.89244 7.89243)">
<stop stop-color="white"/>
<stop offset="1" stop-color="#FF8D49"/>
</radialGradient>
<clipPath id="clip0_778_1254">
<rect width="99.2732" height="76.5625" fill="white" transform="translate(0.8125 0.5625)"/>
</clipPath>
</defs>
</svg>
