<svg width="24" height="24" viewBox="0 0 24 24" fill="none" xmlns="http://www.w3.org/2000/svg">
<g id="settings">
<mask id="mask0_591_3355" style="mask-type:alpha" maskUnits="userSpaceOnUse" x="0" y="0" width="24" height="24">
<rect id="Bounding box" width="24" height="24" fill="#D9D9D9"/>
</mask>
<g mask="url(#mask0_591_3355)">
<path id="settings_2" d="M9.205 21L8.865 18.28C8.68083 18.2092 8.50729 18.1242 8.34438 18.025C8.18146 17.9258 8.02208 17.8196 7.86625 17.7063L5.3375 18.7688L3 14.7313L5.18875 13.0738C5.17458 12.9746 5.1675 12.879 5.1675 12.7869V12.2131C5.1675 12.121 5.17458 12.0254 5.18875 11.9262L3 10.2688L5.3375 6.23125L7.86625 7.29375C8.02208 7.18042 8.185 7.07417 8.355 6.975C8.525 6.87583 8.695 6.79083 8.865 6.72L9.205 4H13.88L14.22 6.72C14.4042 6.79083 14.5777 6.87583 14.7406 6.975C14.9035 7.07417 15.0629 7.18042 15.2188 7.29375L17.7475 6.23125L20.085 10.2688L17.8962 11.9262C17.9104 12.0254 17.9175 12.121 17.9175 12.2131V12.7869C17.9175 12.879 17.9033 12.9746 17.875 13.0738L20.0638 14.7313L17.7263 18.7688L15.2188 17.7063C15.0629 17.8196 14.9 17.9258 14.73 18.025C14.56 18.1242 14.39 18.2092 14.22 18.28L13.88 21H9.205ZM10.6925 19.3H12.3713L12.6687 17.0475C13.1079 16.9342 13.5152 16.7677 13.8906 16.5481C14.266 16.3285 14.6096 16.0629 14.9213 15.7513L17.025 16.6225L17.8538 15.1775L16.0262 13.7963C16.0971 13.5979 16.1467 13.389 16.175 13.1694C16.2033 12.9498 16.2175 12.7267 16.2175 12.5C16.2175 12.2733 16.2033 12.0502 16.175 11.8306C16.1467 11.611 16.0971 11.4021 16.0262 11.2038L17.8538 9.8225L17.025 8.3775L14.9213 9.27C14.6096 8.94417 14.266 8.67146 13.8906 8.45188C13.5152 8.23229 13.1079 8.06583 12.6687 7.9525L12.3925 5.7H10.7137L10.4163 7.9525C9.97708 8.06583 9.56979 8.23229 9.19438 8.45188C8.81896 8.67146 8.47542 8.93708 8.16375 9.24875L6.06 8.3775L5.23125 9.8225L7.05875 11.1825C6.98792 11.395 6.93833 11.6075 6.91 11.82C6.88167 12.0325 6.8675 12.2592 6.8675 12.5C6.8675 12.7267 6.88167 12.9463 6.91 13.1588C6.93833 13.3713 6.98792 13.5838 7.05875 13.7963L5.23125 15.1775L6.06 16.6225L8.16375 15.73C8.47542 16.0558 8.81896 16.3285 9.19438 16.5481C9.56979 16.7677 9.97708 16.9342 10.4163 17.0475L10.6925 19.3ZM11.585 15.475C12.4067 15.475 13.1079 15.1846 13.6888 14.6038C14.2696 14.0229 14.56 13.3217 14.56 12.5C14.56 11.6783 14.2696 10.9771 13.6888 10.3963C13.1079 9.81542 12.4067 9.525 11.585 9.525C10.7492 9.525 10.0444 9.81542 9.47063 10.3963C8.89688 10.9771 8.61 11.6783 8.61 12.5C8.61 13.3217 8.89688 14.0229 9.47063 14.6038C10.0444 15.1846 10.7492 15.475 11.585 15.475Z" fill="#1C1B1F"/>
</g>
</g>
</svg>
